<svg width="1350" height="1350" viewBox="0 0 1350 1350" fill="none" xmlns="http://www.w3.org/2000/svg">
<path d="M675 1349C1047.24 1349 1349 1047.24 1349 675C1349 302.76 1047.24 1 675 1C302.76 1 1 302.76 1 675C1 1047.24 302.76 1349 675 1349Z" stroke="url(#paint0_linear_960_598)" stroke-linecap="round" stroke-linejoin="round"/>
<path d="M675.001 1295.36C1017.62 1295.36 1295.36 1017.62 1295.36 675.001C1295.36 332.385 1017.62 54.6406 675.001 54.6406C332.385 54.6406 54.6406 332.385 54.6406 675.001C54.6406 1017.62 332.385 1295.36 675.001 1295.36Z" stroke="url(#paint1_linear_960_598)" stroke-linecap="round" stroke-linejoin="round"/>
<path d="M675.002 1241.7C987.982 1241.7 1241.7 987.98 1241.7 675C1241.7 362.019 987.982 108.299 675.002 108.299C362.021 108.299 108.301 362.019 108.301 675C108.301 987.98 362.021 1241.7 675.002 1241.7Z" stroke="url(#paint2_linear_960_598)" stroke-linecap="round" stroke-linejoin="round"/>
<path d="M674.999 1188.06C958.355 1188.06 1188.06 958.357 1188.06 675.001C1188.06 391.645 958.355 161.939 674.999 161.939C391.643 161.939 161.938 391.645 161.938 675.001C161.938 958.357 391.643 1188.06 674.999 1188.06Z" stroke="url(#paint3_linear_960_598)" stroke-linecap="round" stroke-linejoin="round"/>
<path d="M674.999 1134.4C928.72 1134.4 1134.4 928.72 1134.4 674.999C1134.4 421.279 928.72 215.598 674.999 215.598C421.279 215.598 215.598 421.279 215.598 674.999C215.598 928.72 421.279 1134.4 674.999 1134.4Z" stroke="url(#paint4_linear_960_598)" stroke-linecap="round" stroke-linejoin="round"/>
<path d="M675 1080.76C899.096 1080.76 1080.76 899.096 1080.76 675C1080.76 450.904 899.096 269.238 675 269.238C450.904 269.238 269.238 450.904 269.238 675C269.238 899.096 450.904 1080.76 675 1080.76Z" stroke="url(#paint5_linear_960_598)" stroke-linecap="round" stroke-linejoin="round"/>
<path d="M675.001 1027.1C869.462 1027.1 1027.1 869.462 1027.1 675.001C1027.1 480.54 869.462 322.898 675.001 322.898C480.54 322.898 322.898 480.54 322.898 675.001C322.898 869.462 480.54 1027.1 675.001 1027.1Z" stroke="url(#paint6_linear_960_598)" stroke-linecap="round" stroke-linejoin="round"/>
<path d="M674.998 973.463C839.834 973.463 973.461 839.836 973.461 675C973.461 510.163 839.834 376.537 674.998 376.537C510.162 376.537 376.535 510.163 376.535 675C376.535 839.836 510.162 973.463 674.998 973.463Z" stroke="url(#paint7_linear_960_598)" stroke-linecap="round" stroke-linejoin="round"/>
<path d="M674.999 919.804C810.2 919.804 919.802 810.202 919.802 675C919.802 539.799 810.2 430.197 674.999 430.197C539.797 430.197 430.195 539.799 430.195 675C430.195 810.202 539.797 919.804 674.999 919.804Z" stroke="url(#paint8_linear_960_598)" stroke-linecap="round" stroke-linejoin="round"/>
<path d="M675 866.163C780.576 866.163 866.163 780.576 866.163 675C866.163 569.423 780.576 483.836 675 483.836C569.423 483.836 483.836 569.423 483.836 675C483.836 780.576 569.423 866.163 675 866.163Z" stroke="url(#paint9_linear_960_598)" stroke-linecap="round" stroke-linejoin="round"/>
<path d="M675 812.504C750.941 812.504 812.504 750.941 812.504 675C812.504 599.059 750.941 537.496 675 537.496C599.059 537.496 537.496 599.059 537.496 675C537.496 750.941 599.059 812.504 675 812.504Z" stroke="url(#paint10_linear_960_598)" stroke-linecap="round" stroke-linejoin="round"/>
<path d="M675.001 758.866C721.318 758.866 758.866 721.318 758.866 675.001C758.866 628.684 721.318 591.137 675.001 591.137C628.684 591.137 591.137 628.684 591.137 675.001C591.137 721.318 628.684 758.866 675.001 758.866Z" stroke="url(#paint11_linear_960_598)" stroke-linecap="round" stroke-linejoin="round"/>
<defs>
<linearGradient id="paint0_linear_960_598" x1="675" y1="1" x2="675" y2="1349" gradientUnits="userSpaceOnUse">
<stop stop-opacity="0"/>
<stop offset="0.666667" stop-color="#14C5A5" stop-opacity="0.33"/>
<stop offset="0.869792" stop-color="#14C5A5" stop-opacity="0"/>
</linearGradient>
<linearGradient id="paint1_linear_960_598" x1="675.001" y1="54.6406" x2="675.001" y2="1295.36" gradientUnits="userSpaceOnUse">
<stop stop-opacity="0"/>
<stop offset="0.666667" stop-color="#14C5A5" stop-opacity="0.33"/>
<stop offset="0.869792" stop-color="#14C5A5" stop-opacity="0"/>
</linearGradient>
<linearGradient id="paint2_linear_960_598" x1="675.002" y1="108.299" x2="675.002" y2="1241.7" gradientUnits="userSpaceOnUse">
<stop stop-opacity="0"/>
<stop offset="0.666667" stop-color="#14C5A5" stop-opacity="0.33"/>
<stop offset="0.869792" stop-color="#14C5A5" stop-opacity="0"/>
</linearGradient>
<linearGradient id="paint3_linear_960_598" x1="674.999" y1="161.939" x2="674.999" y2="1188.06" gradientUnits="userSpaceOnUse">
<stop stop-opacity="0"/>
<stop offset="0.666667" stop-color="#14C5A5" stop-opacity="0.33"/>
<stop offset="0.869792" stop-color="#14C5A5" stop-opacity="0"/>
</linearGradient>
<linearGradient id="paint4_linear_960_598" x1="674.999" y1="215.598" x2="674.999" y2="1134.4" gradientUnits="userSpaceOnUse">
<stop stop-opacity="0"/>
<stop offset="0.666667" stop-color="#14C5A5" stop-opacity="0.33"/>
<stop offset="0.869792" stop-color="#14C5A5" stop-opacity="0"/>
</linearGradient>
<linearGradient id="paint5_linear_960_598" x1="675" y1="269.238" x2="675" y2="1080.76" gradientUnits="userSpaceOnUse">
<stop stop-opacity="0"/>
<stop offset="0.666667" stop-color="#14C5A5" stop-opacity="0.33"/>
<stop offset="0.869792" stop-color="#14C5A5" stop-opacity="0"/>
</linearGradient>
<linearGradient id="paint6_linear_960_598" x1="675.001" y1="322.898" x2="675.001" y2="1027.1" gradientUnits="userSpaceOnUse">
<stop stop-opacity="0"/>
<stop offset="0.666667" stop-color="#14C5A5" stop-opacity="0.33"/>
<stop offset="0.869792" stop-color="#14C5A5" stop-opacity="0"/>
</linearGradient>
<linearGradient id="paint7_linear_960_598" x1="674.998" y1="376.537" x2="674.998" y2="973.463" gradientUnits="userSpaceOnUse">
<stop stop-opacity="0"/>
<stop offset="0.666667" stop-color="#14C5A5" stop-opacity="0.33"/>
<stop offset="0.869792" stop-color="#14C5A5" stop-opacity="0"/>
</linearGradient>
<linearGradient id="paint8_linear_960_598" x1="674.999" y1="430.197" x2="674.999" y2="919.804" gradientUnits="userSpaceOnUse">
<stop stop-opacity="0"/>
<stop offset="0.666667" stop-color="#14C5A5" stop-opacity="0.33"/>
<stop offset="0.869792" stop-color="#14C5A5" stop-opacity="0"/>
</linearGradient>
<linearGradient id="paint9_linear_960_598" x1="675" y1="483.836" x2="675" y2="866.163" gradientUnits="userSpaceOnUse">
<stop stop-opacity="0"/>
<stop offset="0.666667" stop-color="#14C5A5" stop-opacity="0.33"/>
<stop offset="0.869792" stop-color="#14C5A5" stop-opacity="0"/>
</linearGradient>
<linearGradient id="paint10_linear_960_598" x1="675" y1="537.496" x2="675" y2="812.504" gradientUnits="userSpaceOnUse">
<stop stop-opacity="0"/>
<stop offset="0.666667" stop-color="#14C5A5" stop-opacity="0.33"/>
<stop offset="0.869792" stop-color="#14C5A5" stop-opacity="0"/>
</linearGradient>
<linearGradient id="paint11_linear_960_598" x1="675.001" y1="591.137" x2="675.001" y2="758.866" gradientUnits="userSpaceOnUse">
<stop stop-opacity="0"/>
<stop offset="0.666667" stop-color="#14C5A5" stop-opacity="0.33"/>
<stop offset="0.869792" stop-color="#14C5A5" stop-opacity="0"/>
</linearGradient>
</defs>
</svg>
