<svg width="50" height="51" viewBox="0 0 50 51" fill="none" xmlns="http://www.w3.org/2000/svg">
<path d="M24.5375 0.267578H26.3092C32.4601 0.401202 38.5107 2.87325 42.8564 7.24944C41.2518 8.88634 39.6138 10.4564 38.0427 12.0933C35.6024 9.88852 32.6607 8.18481 29.4515 7.5835C24.7047 6.58132 19.5901 7.48328 15.6121 10.1892C11.2664 13.0287 8.32468 17.8392 7.68954 22.9837C6.98754 28.0614 8.42497 33.4064 11.7344 37.3483C14.9101 41.19 19.7572 43.5952 24.7715 43.7622C29.4515 44.0295 34.3321 42.593 37.7418 39.3192C40.4161 37.0142 41.653 33.5066 42.0541 30.0992C36.505 30.0992 30.9558 30.1326 25.4067 30.0992V23.2175H48.7732C49.9767 30.6003 48.2384 38.9184 42.6224 44.1965C38.8784 47.938 33.697 50.1428 28.4152 50.5771C23.3007 51.0782 18.019 50.1094 13.4727 47.6374C8.02383 44.731 3.67811 39.8203 1.53869 34.0411C-0.467027 28.7295 -0.500456 22.7164 1.37154 17.3715C3.0764 12.4942 6.3524 8.18481 10.5644 5.17827C14.6093 2.20513 19.5232 0.568233 24.5375 0.267578Z" fill="#AAAAAA"/>
</svg>
