<svg width="421" height="421" viewBox="0 0 421 421" fill="none" xmlns="http://www.w3.org/2000/svg">
<path d="M127.75 130.089C127.75 130.089 167.324 64.1979 246.43 89.9842C325.41 115.775 306.747 213.678 306.696 213.935C307.041 212.142 320.724 210.432 322.172 210.222C362.533 204.256 392.555 241.797 395.531 278.794C399.228 324.683 363.733 357.184 323.309 371.178" stroke="black" stroke-width="2.3155" stroke-miterlimit="10"/>
<path d="M318.092 392.708C316.897 396.914 316.029 399.318 316.029 399.318H315.406C316.391 397.174 317.287 394.971 318.092 392.708Z" fill="#353642"/>
<path d="M207.975 226.714C207.975 226.714 206.552 235.352 205.078 243.175C200.868 243.221 196.658 243.255 192.495 243.288C190.39 231.441 192.676 222.163 195.391 215.978C198.814 223.783 203.984 226.158 207.975 226.714Z" fill="black"/>
<path d="M277.17 257.885C268.61 253.275 259.486 249.801 250.028 247.549L246.93 247.014C246.93 247.014 244.623 241.769 244.61 241.752C243.528 239.003 241.735 235.353 241.179 232.456C240.502 229.035 240.337 225.532 240.691 222.062C241.297 216.909 243.697 206.009 248.033 202.574C251.649 199.728 253.14 200.325 255.19 195.875C256.663 192.701 257.261 187.367 254.398 185.026C251.224 182.458 249.868 183.763 246.071 184.159C231.639 185.59 223.392 175.204 218.087 163.202C217.245 161.252 216.369 159.194 214.993 157.535C213.414 155.624 211.229 155.194 209.44 153.649C208.678 152.984 208.156 151.898 208.522 150.955C208.738 150.504 209.052 150.107 209.44 149.793C212.821 146.678 216.882 144.393 221.299 143.12C228.287 141.1 235.671 140.869 242.77 142.451C250.18 144.905 256.84 149.553 261.324 156.655C267.508 166.469 268.999 176.648 265.534 186.794C261.985 197.185 258.023 209.39 264.692 219.388C273.571 232.671 278.922 242.013 277.17 257.885Z" fill="black"/>
<path d="M205.094 243.173C200.884 243.22 196.674 243.253 192.511 243.287C160.784 243.451 130.417 243.009 98.5898 248.718" stroke="black" stroke-width="2.3155" stroke-miterlimit="10"/>
<path d="M246.43 246.706C247.638 246.971 248.834 247.249 250.029 247.548C254.69 248.675 259.279 250.08 263.771 251.758C268.379 253.473 272.858 255.518 277.171 257.879C277.176 257.875 277.182 257.873 277.188 257.873C277.194 257.873 277.2 257.875 277.205 257.879C283.991 261.556 290.263 266.112 295.859 271.427C300.538 275.986 304.584 281.153 307.887 286.789C307.916 286.811 307.938 286.84 307.95 286.874C310.63 291.372 312.957 296.072 314.91 300.931C320.736 315.283 324.041 331.807 324.546 348.251C325.005 363.782 322.959 379.245 318.118 392.709C317.312 394.971 316.417 397.174 315.432 399.319C315.368 399.483 315.284 399.63 315.221 399.794" stroke="black" stroke-width="2.3155" stroke-miterlimit="10"/>
<path d="M264.719 399.584C264.719 399.584 264.719 399.55 264.719 399.533C264.746 399.463 264.767 399.392 264.782 399.319" stroke="black" stroke-width="2.3155" stroke-miterlimit="10"/>
<path d="M253.609 304.909C253.609 304.909 262.77 309.359 268.791 323.252C271.818 330.237 274.062 339.629 273.931 352.049C273.931 352.049 273.931 352.049 273.931 352.082C273.864 360.001 272.82 369.145 270.395 379.683V379.742" stroke="black" stroke-width="2.3155" stroke-miterlimit="10"/>
<path d="M80.2383 128.536C81.8549 122.419 84.4483 116.112 86.3975 113.46C89.4624 109.334 93.4619 105.402 98.6065 105.756C101.911 105.971 105.157 107.798 105.305 111.418C105.444 115.346 101.301 119.708 99.9706 123.4C98.7076 126.962 98.1308 131.108 98.796 134.855C99.4611 138.602 102.825 141.528 106.454 142.332C107.831 142.695 109.294 142.496 110.525 141.781C114.078 139.533 113.333 133.546 113.19 130.014C113.022 126.052 113.026 121.573 116.406 118.862C118.89 116.87 122.658 118.192 124.49 120.381C127.672 124.17 127.828 129.875 127.988 134.54C128.464 148.593 125.967 162.065 117.783 173.895C113.573 180.003 109.237 185.485 107.532 192.979C102.227 216.268 101.638 232.414 98.5897 256.065" stroke="black" stroke-width="2.3155" stroke-miterlimit="10"/>
<path d="M162.852 399.95C146.585 353.716 154.289 303.204 154.289 303.204L66.9062 305.974C63.1858 306.092 59.4831 305.411 56.0482 303.977C52.6133 302.543 49.5256 300.389 46.9929 297.662C44.4606 294.934 42.5421 291.695 41.367 288.163C40.192 284.631 39.7876 280.888 40.1811 277.186L61.5848 199.133L66.2158 182.482C67.6926 177.243 67.3541 171.659 65.2559 166.636L63.0751 161.432C63.0751 161.432 59.1219 153.37 67.984 154.128C72.7497 154.549 77.4775 156.574 81.477 159.117C84.6177 161.117 89.4087 164.986 87.9267 169.276C86.1754 174.328 79.3089 175.591 75.2757 172.749" stroke="black" stroke-width="2.3155" stroke-miterlimit="10"/>
<path d="M65.0377 154.086C65.0377 154.086 57.5523 137.246 78.0887 141.604C98.6251 145.961 103.542 168.4 87.8685 165.874" stroke="black" stroke-width="2.3155" stroke-miterlimit="10"/>
<path d="M71.8071 140.639C71.8071 140.639 65.2395 132.661 75.0572 128.851C84.8749 125.041 120.525 143.035 97.6565 160.759" stroke="black" stroke-width="2.3155" stroke-miterlimit="10"/>
<path d="M213.869 226.333C211.963 226.856 209.97 226.985 208.013 226.712C204.005 226.156 198.835 223.765 195.429 215.977C194.722 214.385 194.147 212.738 193.711 211.051C191.977 204.605 191.219 195.638 192.234 183.134C192.432 180.731 192.726 178.289 193.135 175.851C193.811 171.611 194.901 167.447 196.389 163.419C196.389 163.419 196.389 163.385 196.423 163.369C200.136 153.551 206.666 145.266 217.645 142.079C225.879 139.703 234.633 139.83 242.796 142.441C250.205 144.895 256.866 149.543 261.349 156.645C267.534 166.459 269.024 176.638 265.559 186.785C262.01 197.175 258.049 209.38 264.717 219.378C273.584 232.682 278.934 242.024 277.217 257.896" stroke="black" stroke-width="2.3155" stroke-miterlimit="10"/>
<path d="M189.143 243.78C185.918 228.316 190.271 217.042 193.689 211.051" stroke="black" stroke-width="2.3155" stroke-miterlimit="10"/>
<path d="M193.133 175.835C193.133 175.835 200.193 168.455 208.373 180.112" stroke="black" stroke-width="2.3155" stroke-miterlimit="10"/>
<path d="M211.11 212.996C214.095 214.928 218.137 213.728 220.335 210.752C222.722 207.523 223.677 203.212 224.195 199.3C224.229 199.018 224.267 198.741 224.292 198.458C220.65 204.18 213.582 205.552 207.359 206.15C207.595 208.022 208.291 209.805 209.384 211.341C209.853 211.995 210.438 212.556 211.11 212.996Z" stroke="black" stroke-width="2.3155" stroke-linecap="round" stroke-linejoin="round"/>
<path d="M243.533 238.754L243.516 238.737" stroke="black" stroke-width="2.3155" stroke-miterlimit="10"/>
<path d="M215.758 173.565C215.758 173.565 218.158 169.679 226.359 172.542C234.56 175.405 234.657 180.082 234.657 180.082" stroke="black" stroke-width="2.3155" stroke-miterlimit="10"/>
<path d="M197.117 183.228C197.117 183.228 200.906 181.313 203.874 183.228" stroke="black" stroke-width="2.3155" stroke-miterlimit="10"/>
<path d="M217.535 184.991C217.535 184.991 221.324 183.076 224.271 184.991" stroke="black" stroke-width="2.3155" stroke-miterlimit="10"/>
<path d="M207.974 226.713C207.974 226.713 206.551 235.352 205.077 243.174C204.862 244.286 204.656 245.38 204.471 246.462C203.507 251.729 202.736 256.411 202.703 257.829C202.458 269.617 213.602 276.416 224.367 276.303C239.473 276.139 248.305 262.086 246.882 248.012C245.952 245.444 245 242.875 244.07 240.307C242.874 237.015 241.321 233.811 240.647 230.342C240.052 226.925 239.987 223.436 240.454 219.998C241.06 214.862 242.058 207.204 246.394 203.769C250.01 200.923 253.787 199.054 255.85 194.604C257.323 191.429 257.256 187.341 254.393 185.001C251.219 182.432 246.196 182.744 242.399 183.119C217.905 185.624 213.83 160.831 207.203 157.349C201.772 154.482 197.697 160.915 196.421 163.302L196.371 163.403C196.369 163.427 196.358 163.45 196.341 163.466C196.11 163.887 195.996 164.169 195.996 164.169" stroke="black" stroke-width="2.3155" stroke-miterlimit="10"/>
<path d="M207.349 186.082C207.349 186.082 204.79 194.46 204.987 195.715C205.185 196.969 208.17 196.093 208.17 196.093" stroke="black" stroke-width="2.3155" stroke-miterlimit="10"/>
<path d="M227.407 194.923C231.329 191.009 231.257 184.579 227.247 180.562C223.238 176.545 216.808 176.463 212.887 180.377C208.965 184.292 209.037 190.721 213.047 194.738C217.057 198.755 223.486 198.838 227.407 194.923Z" stroke="black" stroke-width="2.3155" stroke-miterlimit="10"/>
<path d="M201.814 191.813C205.735 187.899 205.663 181.469 201.654 177.453C197.644 173.436 191.215 173.353 187.293 177.267C183.372 181.182 183.443 187.611 187.453 191.628C191.463 195.645 197.893 195.728 201.814 191.813Z" stroke="black" stroke-width="2.3155" stroke-miterlimit="10"/>
<path d="M194.331 176.741C195.449 176.736 196.556 176.965 197.579 177.413C198.603 177.862 199.521 178.521 200.275 179.346C201.029 180.171 201.601 181.146 201.955 182.206C202.309 183.266 202.437 184.389 202.33 185.502C202.153 187.373 201.282 189.11 199.889 190.372C198.497 191.633 196.682 192.329 194.803 192.322C193.685 192.327 192.579 192.097 191.555 191.649C190.531 191.2 189.613 190.542 188.859 189.716C188.106 188.891 187.533 187.916 187.179 186.856C186.825 185.796 186.697 184.674 186.804 183.561C186.982 181.69 187.852 179.953 189.245 178.691C190.638 177.429 192.452 176.733 194.331 176.741ZM194.331 175.579C192.166 175.573 190.076 176.377 188.472 177.833C186.869 179.288 185.867 181.291 185.663 183.447C185.446 185.827 186.163 188.198 187.663 190.059C189.163 191.919 191.328 193.123 193.7 193.416C194.063 193.46 194.429 193.482 194.794 193.484C196.963 193.492 199.055 192.69 200.662 191.234C202.268 189.778 203.272 187.774 203.476 185.615C203.692 183.235 202.975 180.864 201.475 179.003C199.975 177.143 197.811 175.939 195.439 175.646C195.075 175.603 194.71 175.58 194.344 175.579H194.331Z" fill="white"/>
<path d="M210.032 186.414L204.66 185.761" stroke="black" stroke-width="2.3155" stroke-miterlimit="10"/>
<path d="M226.581 194.099C230.058 190.628 229.995 184.927 226.44 181.367C222.885 177.805 217.185 177.732 213.708 181.204C210.231 184.674 210.294 190.375 213.848 193.936C217.403 197.497 223.104 197.57 226.581 194.099Z" fill="black"/>
<path d="M200.994 190.99C204.473 187.518 204.41 181.814 200.853 178.252C197.297 174.689 191.594 174.616 188.115 178.089C184.636 181.562 184.7 187.265 188.256 190.827C191.812 194.39 197.515 194.463 200.994 190.99Z" fill="black"/>
<path d="M112.468 44.6938C100.259 45.3169 90.1553 55.1009 89.1828 67.2762C88.8927 70.6733 89.3133 74.0935 90.418 77.3192C91.5227 80.5445 93.2871 83.5045 95.5988 86.0107C97.3034 87.8859 99.2923 89.4815 101.493 90.7386C102.067 91.0699 102.609 91.453 103.114 91.8837C106.408 93.547 110.047 94.4164 113.738 94.4223C117.429 94.4282 121.07 93.5702 124.37 91.9174C124.85 91.4715 125.383 91.0871 125.957 90.7722C128.248 89.4625 130.318 87.8 132.091 85.8465C132.136 85.783 132.185 85.7223 132.238 85.6655C135.455 82.0243 137.525 77.5145 138.189 72.7017C138.853 67.8892 138.081 62.9875 135.97 58.6116C133.859 54.2358 130.503 50.5806 126.323 48.1047C122.142 45.6288 117.325 44.442 112.472 44.6938H112.468ZM127.751 83.2616C127.704 83.2965 127.666 83.3412 127.637 83.3921C126.263 84.8947 124.662 86.1732 122.892 87.1811C122.452 87.4223 122.044 87.7196 121.68 88.0652C119.135 89.3387 116.328 90.0018 113.483 90.0018C110.637 90.0018 107.831 89.3387 105.286 88.0652C104.892 87.7288 104.469 87.4274 104.023 87.1643C100.623 85.2083 97.9105 82.2487 96.2585 78.6904C94.6069 75.1325 94.0963 71.1507 94.7972 67.291C95.4978 63.4312 97.3759 59.883 100.173 57.1327C102.97 54.3827 106.549 52.5648 110.421 51.9295C114.291 51.2942 118.264 51.8718 121.794 53.5836C125.324 55.2954 128.237 58.0572 130.135 61.49C132.033 64.9233 132.822 68.8592 132.394 72.7589C131.967 76.6582 130.343 80.3298 127.746 83.27L127.751 83.2616Z" fill="black"/>
<path d="M124.36 91.9211C123.391 92.8001 122.617 93.8732 122.089 95.071C121.562 96.2683 121.291 97.5629 121.295 98.8718V100C121.295 103.941 118.441 107.473 114.559 107.869C113.51 107.976 112.45 107.863 111.447 107.536C110.445 107.209 109.522 106.676 108.738 105.971C107.954 105.266 107.326 104.404 106.896 103.442C106.464 102.479 106.24 101.437 106.236 100.383V98.8718C106.234 97.5557 105.956 96.2548 105.421 95.0529C104.886 93.8505 104.105 92.7736 103.129 91.8916C106.424 93.5499 110.061 94.4163 113.749 94.4214C117.438 94.4264 121.077 93.5701 124.377 91.9211H124.36Z" fill="#353642"/>
<path d="M124.36 91.9211C123.391 92.8001 122.617 93.8732 122.089 95.071C121.562 96.2683 121.291 97.5629 121.295 98.8718V100C121.295 103.941 118.441 107.473 114.559 107.869C113.51 107.976 112.45 107.863 111.447 107.536C110.445 107.209 109.522 106.676 108.738 105.971C107.954 105.266 107.326 104.404 106.896 103.442C106.464 102.479 106.24 101.437 106.236 100.383V98.8718C106.234 97.5557 105.956 96.2548 105.421 95.0529C104.886 93.8505 104.105 92.7736 103.129 91.8916C106.424 93.5499 110.061 94.4163 113.749 94.4214C117.438 94.4264 121.077 93.5701 124.377 91.9211H124.36Z" stroke="black" stroke-width="2.3155" stroke-miterlimit="10"/>
<path d="M138.414 69.327C138.427 75.3507 136.224 81.1689 132.225 85.6744C132.175 85.7287 132.129 85.7864 132.086 85.847C130.31 87.8038 128.236 89.4676 125.94 90.7769C125.369 91.0956 124.839 91.48 124.357 91.9221C121.058 93.5715 117.418 94.4274 113.73 94.4224C110.041 94.4173 106.404 93.5509 103.109 91.8926C102.606 91.4552 102.062 91.0674 101.484 90.7348C97.4175 88.397 94.1009 84.9499 91.9218 80.7967C89.7423 76.6431 88.7908 71.9553 89.1781 67.2809C89.6909 60.928 92.6434 55.021 97.4163 50.7975C102.19 46.574 108.412 44.3629 114.78 44.6278C121.148 44.8921 127.166 47.6122 131.572 52.2167C135.978 56.8216 138.43 62.9535 138.414 69.327Z" stroke="black" stroke-width="2.3155" stroke-miterlimit="10"/>
<path d="M106.787 94.4228L101.137 75.6967L99.7227 70.3921C99.7227 70.2325 99.7753 70.0776 99.8721 69.9509C99.9694 69.8246 100.105 69.7336 100.259 69.6924C100.414 69.6511 100.577 69.6616 100.724 69.7227C100.872 69.7837 100.994 69.8919 101.074 70.03C102.337 72.2613 104.333 75.061 106.32 74.9894C109.616 74.8715 106.909 64.8644 104.215 65.9126C101.52 66.9609 106.686 73.5748 112.007 74.4C117.329 75.2252 115.872 66.2789 112.007 65.9253C108.143 65.5716 110.808 73.1075 117.754 74.4C124.701 75.6925 123.404 68.0429 121.522 66.5147C119.64 64.9864 120.225 73.8106 124.587 75.2252C125.968 75.6756 127.067 74.7115 127.605 73.5117C127.917 72.8128 127.757 69.2764 127.117 70.3668C125.812 72.6023 125.555 75.3936 124.915 77.8606C123.555 83.081 121.476 88.0783 120.284 93.345" stroke="black" stroke-width="2.3155" stroke-miterlimit="10"/>
<path d="M69.6562 399.95C72.6369 398.552 347.516 399.95 347.516 399.95" stroke="black" stroke-width="2.3155" stroke-miterlimit="10"/>
<path d="M113.736 35.8819L113.492 21.05" stroke="black" stroke-width="3.09014" stroke-miterlimit="10"/>
<path d="M85.4479 49.6781L75.1797 38.9722" stroke="black" stroke-width="3.09014" stroke-miterlimit="10"/>
<path d="M142.129 50.3431L152.624 39.8601" stroke="black" stroke-width="3.09014" stroke-miterlimit="10"/>
<path d="M299.475 379.716L299.833 379.75C299.639 379.784 299.412 379.817 299.214 379.864H298.911L270.405 379.716H267.184L219.292 379.472C219.11 379.472 218.929 379.472 218.748 379.472C218.705 379.48 218.661 379.48 218.618 379.472C218.618 379.472 218.618 379.472 218.588 379.472C218.287 379.475 217.986 379.454 217.688 379.409C220.249 379.119 222.676 378.111 224.689 376.5C225.004 376.235 225.329 375.982 225.623 375.696L225.657 375.662C225.726 375.606 225.79 375.546 225.851 375.481C228.285 373.074 229.742 369.851 229.943 366.434C229.943 366.27 229.943 366.088 229.943 365.924V365.663C229.928 362.473 228.816 359.384 226.792 356.917C224.77 354.45 221.959 352.755 218.833 352.116C218.828 352.111 218.822 352.109 218.816 352.109C218.809 352.109 218.804 352.111 218.799 352.116C218.487 352.036 218.13 351.985 217.801 351.934L218.504 351.888C218.619 351.88 218.735 351.88 218.849 351.888C219.043 351.888 219.224 351.888 219.405 351.888L259.867 352.099L267.315 352.132L273.925 352.166H277.002H277.377C277.427 352.166 277.457 352.166 277.507 352.166C280.92 352.51 284.084 354.107 286.387 356.648C288.69 359.19 289.97 362.495 289.977 365.924C289.977 366.577 289.928 367.229 289.83 367.874C289.353 371.079 287.768 374.015 285.351 376.174C282.933 378.332 279.836 379.575 276.598 379.687C276.451 379.687 276.303 379.687 276.177 379.687H300.216C299.867 379.699 299.639 379.699 299.475 379.716Z" fill="white"/>
<path d="M235.097 396.448C236.006 397.362 237.087 398.088 238.278 398.582C239.469 399.076 240.746 399.33 242.035 399.328H218.552C214.055 399.328 211.614 398.233 209.833 396.448C207.993 394.607 206.958 392.113 206.953 389.51C206.953 384.13 211.369 379.709 218.552 379.709H242.035C240.094 379.706 238.196 380.279 236.582 381.356C234.967 382.433 233.709 383.965 232.965 385.757C232.222 387.55 232.028 389.523 232.408 391.427C232.787 393.33 233.723 395.077 235.097 396.448Z" fill="white"/>
<path d="M299.572 379.748C299.59 379.743 299.609 379.744 299.626 379.751C299.608 379.75 299.59 379.749 299.572 379.748C299.508 379.743 299.444 379.733 299.382 379.717H276.598C279.56 379.559 282.393 378.45 284.677 376.555C285.021 376.274 285.35 375.975 285.662 375.658C285.922 375.405 286.169 375.136 286.399 374.855C286.575 374.659 286.737 374.452 286.887 374.235C286.984 374.118 287.068 374.004 287.148 373.89C287.304 373.682 287.444 373.462 287.569 373.233C287.76 372.967 287.931 372.685 288.078 372.391C288.235 372.111 288.376 371.821 288.499 371.524C288.562 371.394 288.613 371.246 288.697 371.103C288.811 370.809 288.908 370.514 289.005 370.22C289.139 369.799 289.27 369.352 289.367 368.914C289.426 368.677 289.469 368.437 289.497 368.194C289.516 368.136 289.527 368.075 289.531 368.013C289.549 367.966 289.561 367.917 289.564 367.866C289.564 367.702 289.611 367.554 289.628 367.39V367.293C289.689 366.837 289.717 366.377 289.712 365.916C289.717 365.704 289.706 365.492 289.678 365.281V365.133C289.678 364.925 289.661 364.717 289.628 364.51C289.516 363.374 289.258 362.258 288.857 361.189C288.636 360.547 288.354 359.929 288.015 359.34C287.706 358.749 287.346 358.185 286.937 357.656C286.832 357.502 286.716 357.355 286.592 357.214C286.542 357.164 286.495 357.097 286.428 357.033C286.21 356.747 285.969 356.478 285.708 356.23C285.514 356.036 285.287 355.838 285.089 355.627C284.891 355.417 284.563 355.168 284.285 354.97C284.007 354.773 283.826 354.63 283.582 354.466C283.219 354.202 282.836 353.967 282.437 353.762C282.065 353.545 281.677 353.358 281.275 353.203C280.81 353.004 280.335 352.829 279.852 352.68C279.687 352.619 279.516 352.575 279.343 352.55C278.892 352.422 278.434 352.323 277.97 352.255C277.739 352.205 277.511 352.188 277.267 352.158H277.233C277.202 352.167 277.168 352.167 277.137 352.158H277.233H277.267C277.511 352.188 277.739 352.205 277.97 352.255C278.434 352.323 278.892 352.422 279.343 352.55C279.516 352.575 279.687 352.619 279.852 352.68C280.335 352.829 280.81 353.004 281.275 353.203C281.677 353.358 282.065 353.545 282.437 353.762C282.836 353.967 283.219 354.202 283.582 354.466C283.826 354.63 284.007 354.773 284.285 354.97C284.563 355.168 284.891 355.417 285.089 355.627C285.287 355.838 285.514 356.036 285.708 356.23C285.969 356.478 286.21 356.747 286.428 357.033C286.495 357.097 286.542 357.164 286.592 357.214C286.716 357.355 286.832 357.502 286.937 357.656C287.346 358.185 287.706 358.749 288.015 359.34C288.354 359.929 288.636 360.547 288.857 361.189C289.258 362.258 289.516 363.374 289.628 364.51C289.661 364.717 289.678 364.925 289.678 365.133V365.281C289.706 365.492 289.717 365.704 289.712 365.916C289.717 366.377 289.689 366.837 289.628 367.293V367.39C289.611 367.554 289.564 367.702 289.564 367.866C289.561 367.917 289.549 367.966 289.531 368.013C289.527 368.075 289.516 368.136 289.497 368.194C289.469 368.437 289.426 368.677 289.367 368.914C289.27 369.352 289.139 369.799 289.005 370.22C288.908 370.514 288.811 370.809 288.697 371.103C288.613 371.246 288.562 371.394 288.499 371.524C288.376 371.821 288.235 372.111 288.078 372.391C287.931 372.685 287.76 372.967 287.569 373.233C287.444 373.462 287.304 373.682 287.148 373.89C287.068 374.004 286.984 374.118 286.887 374.235C286.737 374.452 286.575 374.659 286.399 374.855C286.169 375.136 285.922 375.405 285.662 375.658C285.35 375.975 285.021 376.274 284.677 376.555C282.393 378.45 279.56 379.559 276.598 379.717H299.382C299.436 379.708 299.492 379.708 299.546 379.717H299.382C299.444 379.733 299.508 379.743 299.572 379.748Z" fill="black"/>
<path d="M312.727 366.123C312.727 366.384 312.727 366.662 312.693 366.923C312.659 367.365 312.613 367.791 312.546 368.216C312.512 368.443 312.466 368.675 312.415 368.902C312.318 369.323 312.205 369.786 312.074 370.211C311.927 370.68 311.751 371.14 311.548 371.588C311.483 371.764 311.401 371.933 311.304 372.093C311.304 372.144 311.27 372.177 311.236 372.224C311.14 372.438 311.026 372.645 310.912 372.847C310.731 373.175 310.533 373.499 310.323 373.811C310.074 374.19 309.797 374.531 309.519 374.876C309.236 375.219 308.936 375.546 308.618 375.857C308.285 376.196 307.93 376.514 307.557 376.808L307.136 377.149C306.657 377.511 306.153 377.839 305.629 378.13C305.384 378.261 305.123 378.396 304.862 378.526C304.838 378.544 304.809 378.554 304.778 378.556C304.484 378.703 304.189 378.821 303.894 378.935C303.599 379.048 303.305 379.162 302.997 379.259C302.686 379.343 302.374 379.44 302.063 379.507L301.806 379.553C301.562 379.608 301.318 379.654 301.069 379.692C300.629 379.768 300.185 379.82 299.739 379.848C299.468 379.876 299.195 379.888 298.922 379.882C298.922 379.882 298.872 379.882 298.855 379.882L270.395 379.743L263.689 379.709L218.987 379.482C218.822 379.479 218.658 379.468 218.494 379.448C218.12 379.448 217.758 379.414 217.383 379.385C220.622 378.999 223.622 377.489 225.861 375.118C228.101 372.747 229.437 369.665 229.638 366.41C229.638 366.246 229.638 366.065 229.638 365.884V365.707C229.642 362.499 228.536 359.389 226.508 356.904C224.48 354.42 221.654 352.713 218.511 352.075C218.183 352.007 217.854 351.961 217.513 351.911C217.839 351.873 218.166 351.852 218.494 351.847C218.609 351.839 218.725 351.839 218.839 351.847H219.117L263.819 352.075L273.923 352.125H277.228H277.506L298.977 352.239C299.682 352.241 300.385 352.297 301.082 352.403C302.861 352.695 304.566 353.328 306.104 354.268C306.302 354.382 306.479 354.512 306.66 354.626C307.206 354.999 307.725 355.41 308.214 355.855C308.378 356.003 308.525 356.15 308.689 356.314C309.937 357.578 310.936 359.065 311.636 360.697L311.885 361.337C311.968 361.544 312.038 361.756 312.095 361.972C312.515 363.316 312.728 364.716 312.727 366.123Z" stroke="black" stroke-width="2.3155" stroke-linecap="square" stroke-linejoin="round"/>
<path d="M289.69 365.875C289.693 366.335 289.67 366.794 289.623 367.252C289.623 367.285 289.623 367.315 289.623 367.348C289.589 367.563 289.56 367.769 289.526 367.971C289.523 368.033 289.511 368.094 289.492 368.152C289.464 368.395 289.421 368.635 289.362 368.872C289.265 369.293 289.134 369.752 289 370.177C288.903 370.472 288.806 370.767 288.692 371.062C288.608 371.209 288.558 371.356 288.494 371.483C288.371 371.78 288.231 372.069 288.073 372.35C287.926 372.643 287.756 372.925 287.564 373.192C287.439 373.42 287.299 373.64 287.143 373.849C287.063 373.962 286.979 374.076 286.882 374.194C286.733 374.41 286.57 374.617 286.394 374.813C286.164 375.095 285.918 375.363 285.657 375.617C285.344 375.927 285.015 376.22 284.672 376.497C282.393 378.401 279.562 379.52 276.597 379.688C276.45 379.688 276.302 379.688 276.176 379.688H219.051C218.528 379.688 217.99 379.658 217.447 379.608C217.799 379.566 218.149 379.506 218.495 379.427C218.522 379.437 218.552 379.437 218.579 379.427H218.608C221.263 378.873 223.698 377.556 225.614 375.638L225.648 375.604C228.084 373.142 229.509 369.855 229.639 366.393C229.639 366.228 229.639 366.047 229.639 365.866V365.85C229.613 362.475 228.359 359.226 226.112 356.708C223.865 354.19 220.779 352.576 217.43 352.167C217.792 352.121 218.15 352.104 218.512 352.087C218.603 352.07 218.698 352.07 218.79 352.087C218.794 352.083 218.8 352.081 218.806 352.081C218.813 352.081 218.819 352.083 218.823 352.087C218.893 352.079 218.964 352.079 219.034 352.087H275.86C276.256 352.087 276.631 352.087 277.01 352.138H277.14C277.172 352.146 277.205 352.146 277.237 352.138H277.304L277.974 352.234C278.437 352.303 278.896 352.401 279.346 352.529C279.51 352.563 279.691 352.609 279.856 352.66C280.339 352.808 280.814 352.983 281.279 353.182C281.67 353.346 282.066 353.544 282.441 353.742C282.836 353.952 283.219 354.187 283.586 354.445C283.83 354.609 284.061 354.769 284.289 354.95C284.516 355.131 284.828 355.371 285.093 355.607C285.358 355.842 285.514 356.028 285.712 356.209C285.96 356.474 286.204 356.735 286.432 357.013C286.499 357.076 286.545 357.143 286.596 357.194L286.941 357.636C287.335 358.174 287.695 358.736 288.019 359.32C288.337 359.919 288.618 360.536 288.861 361.168C289.247 362.241 289.506 363.356 289.631 364.49C289.631 364.704 289.665 364.911 289.682 365.113V365.26C289.69 365.45 289.69 365.664 289.69 365.875Z" stroke="black" stroke-width="2.3155" stroke-linecap="square" stroke-linejoin="round"/>
<path d="M300.192 399.319H218.543C216.724 399.367 214.909 399.108 213.176 398.552C212.83 398.422 212.506 398.291 212.195 398.131C211.883 397.967 211.605 397.803 211.328 397.639C211.05 397.475 210.806 397.264 210.557 397.066C210.313 396.851 210.086 396.645 209.871 396.426C208.75 395.307 207.92 393.931 207.45 392.418C207.152 391.476 207.003 390.493 207.008 389.505C207.005 389.122 207.027 388.74 207.075 388.36C207.137 387.826 207.252 387.301 207.416 386.79C207.644 385.981 207.998 385.214 208.465 384.516C208.731 384.06 209.049 383.637 209.412 383.253C209.635 383.005 209.871 382.769 210.119 382.546C212.115 380.765 215.011 379.666 218.594 379.666H300.192C299.864 379.666 299.637 379.666 299.472 379.666C299.418 379.658 299.362 379.658 299.308 379.666C299.144 379.666 299.178 379.666 299.258 379.666C299.262 379.67 299.268 379.673 299.274 379.673C299.281 379.673 299.287 379.67 299.291 379.666C299.329 379.674 299.367 379.674 299.405 379.666C299.439 379.666 299.455 379.666 299.489 379.666C299.308 379.7 299.127 379.717 298.946 379.763H298.908C298.908 379.763 298.858 379.763 298.841 379.763C296.609 380.207 294.6 381.409 293.154 383.166C291.707 384.922 290.913 387.124 290.905 389.4C290.918 391.799 291.803 394.112 293.396 395.907C294.989 397.701 297.18 398.856 299.561 399.154C299.161 399.306 298.786 399.319 300.192 399.319Z" stroke="black" stroke-width="2.3155" stroke-linecap="square" stroke-linejoin="round"/>
<path d="M299.534 399.272C299.16 399.305 298.785 399.318 298.406 399.318H242.021C240.735 399.317 239.461 399.062 238.274 398.568C237.086 398.074 236.007 397.35 235.1 396.438C233.98 395.319 233.149 393.943 232.679 392.43C232.389 391.487 232.247 390.504 232.258 389.517C232.263 386.918 233.296 384.425 235.133 382.586C236.969 380.746 239.46 379.708 242.059 379.699H298.406C298.684 379.699 298.979 379.699 299.248 379.733C299.297 379.741 299.347 379.741 299.395 379.733C299.429 379.733 299.446 379.733 299.48 379.733C299.299 379.767 299.118 379.783 298.936 379.83H298.907C298.907 379.83 298.856 379.83 298.84 379.83C296.608 380.274 294.599 381.476 293.152 383.232C291.706 384.989 290.912 387.191 290.904 389.466C290.917 391.866 291.802 394.179 293.395 395.974C294.987 397.769 297.179 398.923 299.56 399.221L299.534 399.272Z" stroke="black" stroke-width="2.3155" stroke-linecap="square" stroke-linejoin="round"/>
<path d="M232.225 389.517C232.225 392.117 233.258 394.609 235.096 396.447C236.934 398.286 239.427 399.318 242.026 399.318H218.547C214.063 399.318 211.609 398.223 209.824 396.438C208.914 395.53 208.193 394.451 207.701 393.263C207.21 392.076 206.958 390.803 206.961 389.517C206.961 384.12 211.365 379.699 218.547 379.699H242.026C239.426 379.708 236.936 380.746 235.1 382.586C233.263 384.425 232.229 386.918 232.225 389.517Z" stroke="black" stroke-width="2.3155" stroke-linecap="square" stroke-linejoin="round"/>
<path d="M300.191 399.319H298.406C298.785 399.319 299.16 399.319 299.535 399.273C299.16 399.306 298.785 399.319 300.191 399.319Z" stroke="black" stroke-width="2.3155" stroke-linecap="square" stroke-linejoin="round"/>
<path d="M299.404 379.742C299.08 379.742 298.735 379.691 298.406 379.691H300.191C298.945 379.7 299.092 379.742 299.404 379.742Z" stroke="black" stroke-width="2.3155" stroke-linecap="square" stroke-linejoin="round"/>
<path opacity="0.54" d="M54.7301 362.389L25.5043 287.518C25.1421 286.07 25.115 284.558 25.4247 283.097C25.7344 281.636 26.3729 280.266 27.2917 279.089C28.2106 277.912 29.3855 276.96 30.7273 276.305C32.0692 275.65 33.5426 275.31 35.0357 275.309H151.139C153.745 275.309 156.276 276.186 158.324 277.798C160.371 279.411 161.816 281.667 162.426 284.201L194.422 359.063C194.769 360.508 194.784 362.012 194.465 363.464C194.147 364.915 193.503 366.275 192.584 367.442C191.664 368.608 190.491 369.551 189.155 370.199C187.817 370.847 186.351 371.184 184.865 371.183H65.9834C63.3955 371.183 60.8817 370.317 58.8424 368.724C56.8035 367.13 55.3557 364.9 54.7301 362.389Z" fill="white"/>
<path d="M54.7301 362.389L25.5043 287.518C25.1421 286.07 25.115 284.558 25.4247 283.097C25.7344 281.636 26.3729 280.266 27.2917 279.089C28.2106 277.912 29.3855 276.96 30.7273 276.305C32.0692 275.65 33.5426 275.31 35.0357 275.309H151.139C153.745 275.309 156.276 276.186 158.324 277.798C160.371 279.411 161.816 281.667 162.426 284.201L194.422 359.063C194.769 360.508 194.784 362.012 194.465 363.464C194.147 364.915 193.503 366.275 192.584 367.442C191.664 368.608 190.491 369.551 189.155 370.199C187.817 370.847 186.351 371.184 184.865 371.183H65.9834C63.3955 371.183 60.8817 370.317 58.8424 368.724C56.8035 367.13 55.3557 364.9 54.7301 362.389Z" fill="black"/>
<path d="M54.7301 362.389L25.5043 287.518C25.1421 286.07 25.115 284.558 25.4247 283.097C25.7344 281.636 26.3729 280.266 27.2917 279.089C28.2106 277.912 29.3855 276.96 30.7273 276.305C32.0692 275.65 33.5426 275.31 35.0357 275.309H151.139C153.745 275.309 156.276 276.186 158.324 277.798C160.371 279.411 161.816 281.667 162.426 284.201L194.422 359.063C194.769 360.508 194.784 362.012 194.465 363.464C194.147 364.915 193.503 366.275 192.584 367.442C191.664 368.608 190.491 369.551 189.155 370.199C187.817 370.847 186.351 371.184 184.865 371.183H65.9834C63.3955 371.183 60.8817 370.317 58.8424 368.724C56.8035 367.13 55.3557 364.9 54.7301 362.389Z" stroke="black" stroke-width="2.3155" stroke-linecap="square" stroke-linejoin="round"/>
<path d="M59.0006 359.357L32.0566 290.284C31.7222 288.948 31.6964 287.554 31.9812 286.207C32.266 284.86 32.8541 283.595 33.7005 282.509C34.547 281.423 35.6298 280.545 36.8666 279.94C38.1034 279.335 39.4619 279.02 40.8387 279.018H147.933C150.337 279.018 152.672 279.828 154.56 281.316C156.449 282.805 157.782 284.885 158.344 287.223L187.86 356.267C188.18 357.6 188.194 358.988 187.901 360.327C187.607 361.666 187.014 362.921 186.165 363.998C185.317 365.074 184.235 365.945 183.002 366.543C181.768 367.142 180.415 367.453 179.045 367.453H69.3909C67.0047 367.454 64.6862 366.658 62.804 365.191C60.9217 363.725 59.5833 361.671 59.0006 359.357Z" fill="black"/>
<path d="M140.195 291.719C138.776 289.584 136.456 288.637 135.008 289.614C133.56 290.59 133.539 293.087 134.957 295.221C135.181 295.546 135.432 295.852 135.707 296.135L125.182 318.351C123.498 317.231 121.658 316.953 120.336 317.837C119.909 318.148 119.555 318.548 119.3 319.01C119.045 319.472 118.894 319.984 118.858 320.511L111.668 318.082L105.382 315.977L103.328 315.303C103.07 314.531 102.712 313.797 102.262 313.118C100.267 310.121 97.0084 308.79 94.9749 310.142C92.9415 311.493 92.9205 314.949 94.8613 317.926L82.9007 334.273C80.2905 332.13 77.2129 331.469 75.0827 332.884C72.1862 334.816 72.1357 339.847 74.9859 344.125C75.0995 344.293 75.23 344.436 75.3479 344.596L67.3615 355.509L67.29 355.614C67.0652 355.917 66.9039 356.263 66.8172 356.631C66.73 356.998 66.7187 357.38 66.7839 357.752C66.8492 358.124 66.9894 358.479 67.1961 358.795C67.4028 359.111 67.6714 359.382 67.9863 359.591C68.3008 359.799 68.6549 359.942 69.0266 360.009C69.3979 360.077 69.7793 360.068 70.1477 359.984C70.5157 359.9 70.863 359.741 71.1678 359.518C71.4726 359.295 71.729 359.013 71.921 358.687L79.0232 347.998C81.263 349.299 83.6542 349.547 85.393 348.385C88.1632 346.541 88.2937 341.877 85.814 337.734L97.2862 320.418C98.9702 321.568 100.848 321.862 102.187 320.974C102.935 320.446 103.445 319.644 103.605 318.743L104.447 318.983L110.842 320.73L119.027 322.936C119.275 323.916 119.688 324.847 120.248 325.689C122.239 328.682 125.502 330.017 127.535 328.666C129.569 327.314 129.594 323.79 127.602 320.797C127.309 320.362 126.979 319.953 126.617 319.572L136.633 296.926C137.841 297.768 139.159 297.958 140.131 297.322C141.601 296.383 141.622 293.857 140.195 291.719Z" fill="white"/>
<path d="M63.9895 292.945H48.4757C47.7621 292.948 47.0632 292.742 46.465 292.353C45.8663 291.964 45.3948 291.409 45.1077 290.755C45.0193 290.555 44.9721 290.339 44.9688 290.12C44.9734 289.697 45.1439 289.292 45.4441 288.995C45.7447 288.697 46.1501 288.529 46.5728 288.528H63.0718C62.3055 289.838 62.7265 291.656 63.9895 292.945Z" fill="#D7E8F0"/>
<path d="M74.036 291.353C74.0339 291.775 73.8646 292.179 73.5662 292.478C73.2672 292.776 72.8627 292.943 72.4404 292.944H63.9909C62.7027 291.656 62.3069 289.837 63.0858 288.528H70.5375C71.2498 288.524 71.9478 288.728 72.5456 289.115C73.1439 289.501 73.6167 290.054 73.9055 290.705C73.9926 290.91 74.0368 291.13 74.036 291.353Z" fill="black"/>
<path d="M70.1538 292.944C70.1083 293.029 70.0578 293.11 70.0022 293.188C68.8908 294.7 66.4911 294.843 64.626 293.479C64.4029 293.318 64.1928 293.139 63.9987 292.944C62.7105 291.656 62.3147 289.837 63.0936 288.528C63.1357 288.442 63.1866 288.36 63.2452 288.284C64.344 286.764 66.7437 286.633 68.6087 287.985C68.8352 288.148 69.0482 288.33 69.2444 288.528C70.5242 289.82 70.92 291.622 70.1538 292.944Z" fill="white"/>
<path d="M77.9377 301.095C77.9343 301.519 77.7638 301.923 77.4636 302.221C77.163 302.519 76.7568 302.687 76.3337 302.687H60.0452C60.8324 301.365 60.4409 299.563 59.1484 298.271H74.4476C75.1612 298.268 75.86 298.473 76.4583 298.862C77.0569 299.251 77.5285 299.806 77.8156 300.46C77.8981 300.661 77.9398 300.877 77.9377 301.095Z" fill="black"/>
<path d="M60.0481 302.7H52.3859C51.6735 302.704 50.9755 302.5 50.3777 302.114C49.7795 301.727 49.3067 301.174 49.0179 300.523C48.9295 300.32 48.8823 300.101 48.8789 299.879C48.8777 299.67 48.9181 299.462 48.9977 299.268C49.0772 299.074 49.1943 298.898 49.3425 298.75C49.4902 298.602 49.6662 298.484 49.8594 298.404C50.0531 298.324 50.2607 298.283 50.4703 298.284H59.1513C60.4438 299.564 60.8353 301.365 60.0481 302.7Z" fill="#D7E8F0"/>
<path d="M60.0466 302.7C60.0117 302.787 59.9649 302.869 59.9077 302.944C58.8089 304.468 56.405 304.598 54.5399 303.247C54.3092 303.081 54.0912 302.898 53.8874 302.7C52.6244 301.411 52.2034 299.605 52.9822 298.283C53.0235 298.198 53.0744 298.117 53.1338 298.043C54.241 296.528 56.6407 296.389 58.51 297.749C58.731 297.911 58.9394 298.09 59.1331 298.283C60.4424 299.563 60.8339 301.365 60.0466 302.7Z" fill="white"/>
<path d="M65.4721 312.382H55.7218C55.0094 312.384 54.3118 312.179 53.714 311.792C53.1162 311.404 52.6434 310.852 52.3538 310.201C52.2654 310.001 52.2182 309.784 52.2148 309.565C52.2161 309.14 52.3854 308.733 52.6859 308.433C52.9865 308.132 53.3936 307.963 53.8189 307.961H64.5459C63.7966 309.262 64.1923 311.068 65.4721 312.382Z" fill="black"/>
<path d="M81.2789 310.778C81.2768 311.199 81.1075 311.602 80.8082 311.899C80.5093 312.196 80.1047 312.362 79.6833 312.361H65.4745C64.2115 311.068 63.7905 309.262 64.5652 307.94H77.7888C78.499 307.94 79.1941 308.147 79.7889 308.535C80.3834 308.924 80.8516 309.479 81.1357 310.129C81.2271 310.334 81.2759 310.554 81.2789 310.778Z" fill="#D7E8F0"/>
<path d="M71.6253 312.382C71.5841 312.468 71.5331 312.548 71.4738 312.622C70.375 314.146 67.9753 314.277 66.1102 312.925C65.8863 312.758 65.6741 312.577 65.4745 312.382C64.2115 311.09 63.7905 309.283 64.5652 307.962C64.6094 307.878 64.6603 307.798 64.7167 307.722C65.8282 306.21 68.2279 306.075 70.0929 307.427C70.3143 307.59 70.524 307.769 70.7202 307.962C71.9916 309.233 72.4126 311.047 71.6253 312.382Z" fill="white"/>
<path d="M128.52 357.993H118.765C118.053 357.995 117.355 357.79 116.757 357.403C116.159 357.016 115.687 356.463 115.397 355.812C115.305 355.613 115.256 355.396 115.254 355.177C115.255 354.752 115.424 354.344 115.725 354.044C116.026 353.743 116.433 353.574 116.858 353.573H127.589C126.844 354.903 127.24 356.701 128.52 357.993Z" fill="black"/>
<path d="M167.228 356.41C167.228 356.619 167.186 356.825 167.106 357.017C167.026 357.21 166.908 357.384 166.761 357.531C166.613 357.678 166.437 357.795 166.245 357.874C166.052 357.953 165.845 357.994 165.637 357.993H128.517C127.254 356.701 126.833 354.895 127.608 353.573H163.738C164.449 353.572 165.144 353.779 165.739 354.168C166.333 354.557 166.801 355.111 167.085 355.762C167.177 355.966 167.226 356.187 167.228 356.41Z" fill="#D7E8F0"/>
<path d="M134.668 357.993C134.627 358.079 134.576 358.159 134.517 358.233C133.418 359.757 131.018 359.888 129.153 358.536C128.928 358.371 128.716 358.189 128.517 357.993C127.254 356.701 126.833 354.895 127.608 353.573C127.652 353.489 127.703 353.408 127.76 353.333C128.871 351.821 131.271 351.687 133.136 353.038C133.357 353.201 133.567 353.38 133.763 353.573C135.051 354.865 135.447 356.68 134.668 357.993Z" fill="white"/>
</svg>
