<svg width="56" height="37" viewBox="0 0 56 37" fill="none" xmlns="http://www.w3.org/2000/svg">
<g clip-path="url(#clip0_176_475)">
<path d="M6.6029 10.2617C6.6029 6.19785 4.4145 2.86895 0.270508 0.0588379H9.86222C13.2147 2.47985 15.3099 6.15461 15.3099 10.2617C15.3099 14.3688 13.2612 18.0435 9.86222 20.4645C12.9819 21.6751 14.7512 24.6149 14.7512 28.8084V36.8496H6.09072V28.8084C6.09072 24.7878 4.04201 21.9777 0.317072 20.4645C4.4145 17.6112 6.6029 14.2823 6.6029 10.2617ZM25.4138 10.2617C25.4138 6.19785 23.2254 2.86895 19.0814 0.0588379H28.6732C32.0256 2.47985 34.1209 6.15461 34.1209 10.2617C34.1209 14.3688 32.0722 18.0435 28.6732 20.4645C31.7928 21.6751 33.5621 24.6149 33.5621 28.8084V36.8496H24.9017V28.8084C24.9017 24.7878 22.8529 21.9777 19.128 20.4645C23.2254 17.6112 25.4138 14.2823 25.4138 10.2617ZM44.2248 10.2617C44.2248 6.19785 42.0364 2.86895 37.8924 0.0588379H47.4841C50.8365 2.47985 52.9318 6.15461 52.9318 10.2617C52.9318 14.3688 50.8831 18.0435 47.4841 20.4645C50.6037 21.6751 52.3731 24.6149 52.3731 28.8084V36.8496H43.7126V28.8084C43.7126 24.7878 41.6639 21.9777 37.9389 20.4645C42.0364 17.6112 44.2248 14.2823 44.2248 10.2617ZM79.3789 30.1486H72.7671V6.75986H88.924C96.6998 6.75986 100.518 9.44027 100.518 13.8067C100.518 16.7898 98.6554 19.0379 95.1167 20.1619C98.7485 20.6807 100.378 22.4532 100.378 25.6092V30.1486H93.7664V25.8686C93.7664 23.1882 92.323 22.1074 88.505 22.1074H79.3789V30.1486ZM88.5981 10.132H79.3789V18.692H88.505C91.8109 18.692 93.9061 17.0059 93.9061 14.3255C93.9061 11.6884 91.9971 10.132 88.5981 10.132ZM111.972 6.71663H105.407V30.1054H111.972V6.71663V6.71663ZM132.18 22.4965H124.171V30.1054H117.606V6.71663H132.366C140.142 6.71663 144.239 9.7429 144.239 14.5417C144.193 19.5567 140.049 22.4965 132.18 22.4965ZM132.04 10.132H124.171V19.0811H131.994C135.393 19.0811 137.488 17.4815 137.488 14.5849C137.441 11.7316 135.346 10.132 132.04 10.132ZM162.724 22.4965H154.716V30.1054H148.104V6.71663H162.864C170.64 6.71663 174.737 9.7429 174.737 14.5417C174.737 19.5567 170.547 22.4965 162.724 22.4965ZM162.585 10.132H154.716V19.0811H162.538C165.937 19.0811 168.032 17.4815 168.032 14.5849C167.986 11.7316 165.891 10.132 162.585 10.132ZM185.214 6.71663V26.6468H201.65V30.1054H178.648V6.71663H185.214ZM212.359 6.71663H205.794V30.1054H212.359V6.71663ZM222.277 14.5417V30.1054H217.947V6.71663H222.882L240.808 22.2803V6.71663H245.139V30.1054H240.203L222.277 14.5417ZM266.604 9.48351C260.364 9.48351 256.267 13.1583 256.267 18.6488C256.267 24.0528 260.178 27.425 266.231 27.425H266.65C268.699 27.425 271.027 27.0359 273.169 26.3874V20.0754H262.553V16.7033H279.641V27.6844C276.102 29.3704 270.748 30.7106 266.417 30.7106H265.859C255.894 30.7106 249.422 25.8254 249.422 18.7353C249.422 11.7316 256.034 6.11138 266.231 6.11138H266.79C271.027 6.11138 275.869 7.36512 279.455 9.26735L277.592 12.1207C274.379 10.4778 270.515 9.44027 267.116 9.44027H266.604V9.48351Z" fill="#AAAAAA"/>
</g>
<defs>
<clipPath id="clip0_176_475">
<rect width="55.2767" height="36.8511" fill="white" transform="translate(0.270508 0.060791)"/>
</clipPath>
</defs>
</svg>
