<svg width="20" height="20" viewBox="0 0 20 20" fill="none" xmlns="http://www.w3.org/2000/svg">
<path fill-rule="evenodd" clip-rule="evenodd" d="M10 1.52863L7.89868 3.70279C7.67502 3.9342 7.36699 4.06488 7.04515 4.06488H4.06488V7.04515C4.06488 7.36699 3.9342 7.67502 3.70279 7.89868L1.52863 10L3.70279 12.1013C3.9342 12.325 4.06488 12.633 4.06488 12.9548V15.9351H7.04515C7.36698 15.9351 7.67502 16.0658 7.89868 16.2972L10 18.4714L12.1013 16.2972C12.325 16.0658 12.633 15.9351 12.9548 15.9351H15.9351V12.9548C15.9351 12.633 16.0658 12.325 16.2972 12.1013L18.4714 10L16.2972 7.89869C16.0658 7.67503 15.9351 7.36699 15.9351 7.04516V4.06488H12.9548C12.633 4.06488 12.325 3.9342 12.1013 3.70279L10 1.52863ZM9.14647 0.36209C9.61308 -0.120697 10.3869 -0.120696 10.8535 0.362091L13.0556 2.64045H16.1725C16.8281 2.64045 17.3596 3.1719 17.3596 3.82747V6.94445L19.6379 9.14647C20.1207 9.61309 20.1207 10.3869 19.6379 10.8535L17.3596 13.0556V16.1725C17.3596 16.8281 16.8281 17.3596 16.1725 17.3596H13.0556L10.8535 19.6379C10.3869 20.1207 9.61308 20.1207 9.14647 19.6379L6.94444 17.3596H3.82747C3.1719 17.3596 2.64045 16.8281 2.64045 16.1725V13.0556L0.36209 10.8535C-0.120696 10.3869 -0.120697 9.61309 0.36209 9.14647L2.64045 6.94444V3.82747C2.64045 3.1719 3.1719 2.64045 3.82747 2.64045H6.94444L9.14647 0.36209Z" fill="black"/>
<path fill-rule="evenodd" clip-rule="evenodd" d="M5.48931 10C5.48931 7.50881 7.50881 5.48931 10 5.48931C12.4912 5.48931 14.5107 7.50881 14.5107 10C14.5107 12.4912 12.4912 14.5107 10 14.5107C7.50881 14.5107 5.48931 12.4912 5.48931 10ZM10 6.91374C8.2955 6.91374 6.91374 8.2955 6.91374 10C6.91374 11.7045 8.2955 13.0863 10 13.0863C11.7045 13.0863 13.0863 11.7045 13.0863 10C13.0863 8.2955 11.7045 6.91374 10 6.91374Z" fill="black"/>
</svg>
