<svg width="94" height="23" viewBox="0 0 94 23" fill="none" xmlns="http://www.w3.org/2000/svg">
<path d="M93.9709 22.0321C91.5895 22.3293 89.8675 20.9534 89.7994 18.6341C89.7225 16.0239 89.7868 13.4086 89.7326 10.7972C89.7124 9.81711 89.6595 8.80289 89.396 7.86833C88.9258 6.20661 87.2163 5.17468 85.3707 5.25688C83.6133 5.33529 82.0425 6.57715 81.6996 8.27048C81.5345 9.08743 81.5004 9.94105 81.4954 10.7782C81.474 14.3179 81.4752 17.8576 81.4954 21.3985C81.4992 21.9423 81.3668 22.1232 80.7932 22.1055C78.6438 22.0397 77.2255 20.6828 77.2003 18.543C77.1701 15.9733 77.218 13.4011 77.1499 10.8313C77.1221 9.77159 77.0377 8.66631 76.7074 7.67231C76.1477 5.9891 74.2075 5.00522 72.4262 5.29482C70.4948 5.60845 69.0539 7.06656 68.9946 8.93441C68.9064 11.7128 68.9114 14.495 68.8736 17.2746C68.866 17.8222 68.861 18.371 68.8219 18.9161C68.6606 21.2038 66.7834 22.1788 64.876 22.0966C64.4335 22.0776 64.5445 21.7375 64.5432 21.4871C64.5369 19.317 64.5382 17.1469 64.5382 14.9755C64.5382 10.5291 64.5382 6.08395 64.5382 1.63753C64.5382 0.878755 64.6668 0.72953 65.3778 0.974867C66.2981 1.29229 67.1717 1.74629 68.0781 2.1067C68.2647 2.18005 68.5534 2.17499 68.7236 2.07888C70.0095 1.35046 71.3748 0.91543 72.8548 0.902783C75.1908 0.882549 77.1953 1.71847 78.8972 3.30936C79.0194 3.42318 79.1392 3.54079 79.2993 3.69381C79.6006 3.42444 79.8817 3.15002 80.1881 2.90468C82.6754 0.910371 85.4514 0.318527 88.4543 1.42507C91.4887 2.54426 93.294 4.79909 93.952 7.97203C93.9898 8.1554 93.9987 8.34889 93.9987 8.53732C94.0012 12.8573 94.0012 17.176 93.9987 21.4959C93.9987 21.6628 93.981 21.8298 93.9697 22.0296L93.9709 22.0321Z" fill="#AAAAAA"/>
<path d="M13.9199 5.25351C11.4011 5.25351 8.88226 5.25731 6.36345 5.25098C5.50242 5.24845 4.6376 5.26363 3.78161 5.19155C1.66496 5.01703 0.45976 3.49063 0.551789 1.22822C0.556832 1.10935 0.929988 0.910801 1.13422 0.908271C3.38198 0.885508 5.62975 0.891831 7.87751 0.894361C10.9031 0.898154 13.9287 0.88045 16.953 0.918388C19.3231 0.948739 20.7754 2.59401 20.5585 4.95253C20.5384 5.16878 20.3619 5.404 20.1967 5.56967C16.3265 9.4647 12.4487 13.3509 8.57214 17.2396C8.45616 17.3559 8.35026 17.4824 8.14855 17.7037C8.46372 17.7214 8.67677 17.7442 8.89109 17.7442C11.6015 17.7467 14.3119 17.7353 17.0211 17.7556C17.7107 17.7606 18.4141 17.7935 19.0861 17.9351C20.7048 18.2779 21.9478 20.2013 21.6099 21.8036C21.5822 21.9364 21.2443 22.0856 21.0489 22.0882C18.8642 22.1097 16.6795 22.1059 14.4947 22.1046C11.3859 22.1021 8.27588 22.1084 5.16708 22.0844C3.02269 22.0679 1.4809 20.6263 1.58301 18.0565C1.59184 17.8441 1.78346 17.6063 1.94987 17.4394C5.80498 13.5583 9.66765 9.68475 13.5329 5.81374C13.6778 5.66831 13.8568 5.55449 14.0195 5.42677L13.9211 5.25225L13.9199 5.25351Z" fill="#AAAAAA"/>
<path d="M53.0579 22.0995C47.3396 22.1311 42.5251 17.3407 42.4987 11.593C42.4709 5.71375 47.1946 0.932217 53.0642 0.899337C58.765 0.866457 63.621 5.69605 63.6336 11.4121C63.6475 17.3002 58.9301 22.0666 53.0579 22.0995ZM46.8467 11.6145C46.9513 15.1984 49.7412 17.8352 53.3227 17.7353C56.6571 17.6417 59.3739 14.7634 59.2957 11.4033C59.2125 7.80544 56.3533 5.13962 52.7012 5.2547C49.4109 5.3584 46.7483 8.25059 46.8467 11.6145Z" fill="#AAAAAA"/>
<path d="M20.476 11.5111C20.4268 5.89112 24.9589 1.01727 30.8034 0.91357C36.6831 0.808607 41.5215 5.56358 41.577 11.3315C41.6325 17.193 37.0147 21.9784 31.266 22.0821C25.2564 22.1896 20.5214 17.489 20.4772 11.5111H20.476ZM30.9862 5.25502C27.5698 5.25881 24.8001 8.01568 24.7975 11.415C24.795 14.9736 27.5143 17.7394 31.0177 17.7394C34.5047 17.7394 37.2718 14.937 37.2605 11.4163C37.2504 8.01189 34.4379 5.25122 30.9862 5.25502Z" fill="#AAAAAA"/>
</svg>
