<svg width="143" height="35" viewBox="0 0 143 35" fill="none" xmlns="http://www.w3.org/2000/svg">
<path d="M116.189 34.4757C115.911 34.4215 115.636 34.3715 115.359 34.3131C113.972 34.0212 113.015 33.1622 112.294 31.9925C112.108 31.6902 111.929 31.3837 111.614 31.1022C111.529 32.0571 111.445 33.0121 111.358 33.9962H107.54V0.499023H112.177V12.9671L112.3 13.0214C112.417 12.8504 112.536 12.6836 112.648 12.5105C114.637 9.43729 119.203 9.05574 121.526 12.4376C122.717 14.1723 123.273 16.128 123.551 18.1754C123.999 21.503 123.924 24.8098 123.017 28.0623C122.6 29.5593 121.966 30.9604 120.951 32.1614C119.904 33.3999 118.622 34.2318 116.962 34.384C116.864 34.3923 116.77 34.4423 116.674 34.4736H116.186L116.189 34.4757ZM112.258 22.3537H112.177C112.177 23.4274 112.165 24.5012 112.181 25.575C112.202 26.9656 112.575 28.2646 113.386 29.3988C114.502 30.9584 116.468 30.9938 117.594 29.4405C118.036 28.8317 118.39 28.0999 118.567 27.3722C119.387 24.0362 119.439 20.669 118.588 17.3352C118.365 16.4636 117.898 15.5859 117.325 14.8874C116.326 13.6698 114.725 13.724 113.649 14.8749C112.817 15.7652 112.331 16.8431 112.275 18.0461C112.208 19.4806 112.258 20.9192 112.258 22.3558V22.3537Z" fill="#AAAAAA"/>
<path d="M76.2946 34.4768C75.9985 34.4184 75.7003 34.3642 75.4064 34.2996C73.5716 33.8868 72.3331 32.715 71.4199 31.1492C70.5046 29.5834 70.0271 27.8675 69.7853 26.0869C69.3141 22.6363 69.3745 19.2107 70.44 15.858C70.9695 14.1922 71.7806 12.6785 73.1275 11.5109C74.4014 10.4038 75.8734 9.89085 77.5768 10.1181C78.93 10.2995 79.9745 10.9563 80.7105 12.1009C80.8085 12.2531 80.9023 12.4095 81.0003 12.5617C81.0087 12.5763 81.0358 12.5784 81.1275 12.6201V0.493896H85.7603V34.0306C85.2808 34.0306 84.6803 34.0306 84.0819 34.0306C83.5523 34.0306 83.0228 34.0098 82.4973 34.0369C82.0929 34.0578 81.924 33.9368 81.901 33.5052C81.8635 32.7588 81.7551 32.0166 81.6634 31.1534C81.5153 31.3306 81.4215 31.414 81.359 31.5183C80.3644 33.1612 78.9654 34.1933 77.0118 34.3955C76.9346 34.4039 76.8596 34.4476 76.7845 34.4747H76.2966L76.2946 34.4768ZM81.0796 22.3465H81.1442C81.1442 21.2102 81.1588 20.0738 81.14 18.9396C81.1192 17.6219 80.8836 16.3543 80.0955 15.2513C78.9237 13.6146 76.92 13.5562 75.7566 15.1992C75.2875 15.8622 74.9331 16.6566 74.7246 17.4447C73.9928 20.2094 74.0199 23.0199 74.4285 25.8325C74.6141 27.1065 74.9477 28.3408 75.7274 29.3978C76.8867 30.972 78.8382 30.9762 79.9933 29.4041C80.6042 28.5722 81.0254 27.634 81.065 26.5998C81.1192 25.1841 81.0796 23.7642 81.0796 22.3444V22.3465Z" fill="#AAAAAA"/>
<path d="M96.3072 34.4787C95.9486 34.4204 95.5879 34.3682 95.2313 34.3015C93.1255 33.9012 91.5701 32.7169 90.4568 30.9239C89.4309 29.2726 88.9222 27.444 88.6866 25.5363C88.3134 22.5131 88.3634 19.5086 89.235 16.5605C89.7166 14.9259 90.4776 13.4351 91.6973 12.2112C94.9228 8.97121 100.071 9.43616 102.648 13.2037C103.832 14.9363 104.405 16.8941 104.655 18.9478C105.074 22.3651 105.012 25.7531 103.746 29.014C102.777 31.516 101.151 33.4029 98.463 34.1702C97.9606 34.314 97.4331 34.3787 96.9181 34.4787H96.3072ZM100.204 21.7646C100.15 21.0932 100.093 19.9194 99.9496 18.7539C99.7891 17.4424 99.5076 16.1518 98.7904 15.0093C97.6666 13.2245 95.6045 13.1974 94.487 14.9884C94.1075 15.5972 93.8094 16.2957 93.6468 16.9942C92.8294 20.5011 92.8086 24.0309 93.6634 27.5295C93.8719 28.3864 94.3098 29.2559 94.8623 29.946C95.8902 31.2324 97.6687 31.1198 98.609 29.7709C98.9968 29.2163 99.2824 28.5637 99.4888 27.9173C100.075 26.0846 100.158 24.1769 100.204 21.7646Z" fill="#AAAAAA"/>
<path d="M142.428 11.2364C142.361 11.3594 142.3 11.4866 142.227 11.6054C141.944 12.0579 141.523 12.2101 141.026 12.0641C140.551 11.9244 140.305 11.57 140.301 11.0675C140.297 10.5629 140.545 10.2127 141.016 10.0625C141.514 9.902 141.929 10.0709 142.221 10.5066C142.298 10.6213 142.359 10.7506 142.428 10.8715V11.2364ZM142.167 11.0446C142.156 10.5775 141.76 10.1751 141.32 10.1876C140.88 10.1981 140.497 10.6192 140.507 11.08C140.518 11.547 140.914 11.9432 141.358 11.9348C141.802 11.9265 142.179 11.5095 142.169 11.0446H142.167Z" fill="#AAAAAA"/>
<path d="M48.9927 34.0308C49.3263 32.5442 49.6369 31.1431 49.9538 29.7441C52.0367 20.5327 54.1259 11.3234 56.1858 2.10784C56.3255 1.48443 56.5632 1.30929 57.1887 1.33639C58.5085 1.39269 59.8324 1.37184 61.1522 1.34265C61.588 1.33222 61.7318 1.46984 61.8215 1.89517C63.9086 11.7696 66.0144 21.6398 68.116 31.5101C68.2891 32.3191 68.4559 33.1301 68.6456 34.0329H65.3055C64.5021 34.0329 64.0204 33.6437 63.8606 32.8653C63.356 30.4447 62.8369 28.0282 62.3532 25.6034C62.2593 25.1343 62.0675 24.9925 61.5901 25.0008C59.7199 25.03 57.8496 25.0279 55.9794 25.0008C55.5416 24.9946 55.3873 25.1426 55.2997 25.5554C54.7493 28.1929 54.1613 30.8241 53.6151 33.4637C53.5212 33.9161 53.3398 34.0496 52.8916 34.0392C51.6177 34.01 50.3417 34.0287 48.9948 34.0287L48.9927 34.0308ZM58.8733 6.16727C57.9226 11.2171 56.9739 16.2502 56.019 21.3146H61.613C60.6956 16.2481 59.7845 11.2171 58.8713 6.16727H58.8733Z" fill="#AAAAAA"/>
<path d="M0.00257325 33.698V1.46851H13.6216C9.10764 12.2374 4.60619 22.9791 0.102652 33.723L0.000488281 33.698H0.00257325Z" fill="#AAAAAA"/>
<path d="M23.25 1.45277H36.8586V33.6822L36.7669 33.7219C32.2758 22.9989 27.7827 12.2738 23.25 1.45068V1.45277Z" fill="#AAAAAA"/>
<path d="M141.669 23.1814H130.643C130.62 23.3315 130.568 23.4671 130.583 23.5963C130.702 24.5992 130.741 25.625 130.977 26.6008C131.723 29.6824 133.862 31.0981 137.059 30.6477C138.057 30.508 139.033 30.2161 140.109 29.9743C140.303 30.9104 140.528 31.9279 140.701 32.9537C140.72 33.0684 140.461 33.2935 140.288 33.3665C138.568 34.0733 136.758 34.2964 134.915 34.2568C131.056 34.1713 128.31 32.2969 127.061 28.6461C125.529 24.1676 125.683 19.6724 127.432 15.2648C128 13.8324 128.898 12.6065 130.105 11.6203C132.939 9.30386 138.03 9.17251 140.33 13.7699C141.133 15.3732 141.548 17.085 141.652 18.8551C141.735 20.2646 141.669 21.6844 141.669 23.1793V23.1814ZM137.376 19.8705C137.376 19.5098 137.392 19.2283 137.374 18.9489C137.263 17.381 137.067 15.8319 136.064 14.5351C135.065 13.2424 133.464 13.1569 132.388 14.3829C131.021 15.9424 130.789 17.8877 130.602 19.8726H137.376V19.8705Z" fill="#AAAAAA"/>
<path d="M27.1412 34.0231C25.2481 34.0231 23.4633 34.0356 21.6807 34.0022C21.5306 34.0001 21.3241 33.7208 21.2449 33.5269C20.5173 31.7442 19.7834 29.9636 19.1182 28.1601C18.9098 27.593 18.6179 27.4512 18.0549 27.4638C16.4516 27.4992 14.8441 27.4763 13.2407 27.4763C13.0218 27.4763 12.8029 27.4763 12.4609 27.4763C14.4563 22.7851 16.412 18.1898 18.4365 13.4277C21.3658 20.3582 24.2348 27.1489 27.1412 34.0231Z" fill="#AAAAAA"/>
<path d="M39.7351 2.47273C39.7392 3.04818 39.2805 3.53606 38.7197 3.55065C38.1442 3.56733 37.6313 3.05026 37.6418 2.46647C37.6501 1.9077 38.1442 1.41772 38.6968 1.41772C39.2576 1.41772 39.733 1.89936 39.7372 2.47273H39.7351ZM38.7134 3.34841C39.168 3.34215 39.5266 2.9481 39.5161 2.46647C39.5057 1.98484 39.1304 1.60537 38.678 1.6158C38.2276 1.62622 37.8586 2.03071 37.869 2.49982C37.8794 2.97311 38.2568 3.35258 38.7134 3.34632V3.34841Z" fill="#AAAAAA"/>
<path d="M140.973 10.5084C141.469 10.4667 141.892 10.4104 141.671 11.1026C141.625 11.2465 141.713 11.4321 141.767 11.7761C141.552 11.4842 141.446 11.3382 141.298 11.136C141.189 11.332 141.112 11.4654 140.973 11.7156V10.5084Z" fill="#AAAAAA"/>
<path d="M39.0434 3.10024C38.9079 2.90842 38.8015 2.75622 38.6514 2.54355L38.4075 3.02935L38.3074 3.01684C38.3074 2.74788 38.2657 2.4685 38.3241 2.21204C38.3533 2.08278 38.5784 1.89304 38.6889 1.90972C38.8349 1.93057 39.0455 2.10779 39.0726 2.24748C39.1247 2.50185 39.0601 2.77707 39.0413 3.10024H39.0434Z" fill="#AAAAAA"/>
</svg>
