<svg width="21" height="20" viewBox="0 0 21 20" fill="none" xmlns="http://www.w3.org/2000/svg">
<path fill-rule="evenodd" clip-rule="evenodd" d="M2.57755 7.77092C4.61962 12.2175 8.25343 15.7527 12.7707 17.6683L12.785 17.6743L13.6577 18.0633C14.7689 18.5584 16.0751 18.2068 16.7876 17.2207L18.2436 15.2055C18.3325 15.0824 18.3096 14.9113 18.1914 14.8159L15.6496 12.7653C15.5232 12.6634 15.3374 12.6871 15.2408 12.8176L14.2515 14.1525C14.0112 14.4767 13.5774 14.5893 13.2097 14.423C9.83194 12.8943 7.11762 10.18 5.58899 6.80222C5.42262 6.4346 5.53527 6.00072 5.85946 5.76047L7.19437 4.77119C7.32481 4.67453 7.34856 4.48872 7.24662 4.36236L5.19572 1.82018C5.1004 1.70202 4.92931 1.67907 4.80623 1.76793L2.78018 3.23055C1.78756 3.94714 1.43799 5.2643 1.94466 6.37879L2.57687 7.76943C2.5771 7.76993 2.57733 7.77042 2.57755 7.77092ZM12.0945 19.243C7.18611 17.1595 3.23825 13.3172 1.01939 8.48453L1.01806 8.48162L0.384521 7.08806C-0.459925 5.23059 0.122685 3.03531 1.77705 1.84101L3.8031 0.378384C4.6647 -0.243619 5.86234 -0.0829732 6.52957 0.744099L8.58047 3.28629C9.29405 4.1708 9.12784 5.47145 8.21478 6.14811L7.44985 6.71498C8.74195 9.22214 10.7898 11.27 13.297 12.5621L13.8639 11.7972C14.5405 10.8841 15.8412 10.7179 16.7257 11.4315L19.2675 13.4821C20.0948 14.1495 20.2553 15.3476 19.6327 16.2092L18.1767 18.2244C16.9893 19.8679 14.8123 20.4539 12.9602 19.6288L12.0945 19.243Z" fill="black"/>
</svg>
