<svg width="15" height="20" viewBox="0 0 15 20" fill="none" xmlns="http://www.w3.org/2000/svg">
<path fill-rule="evenodd" clip-rule="evenodd" d="M9.60387 0.0614931C9.88761 0.182293 10.0718 0.460867 10.0718 0.769249V7.94686H14.1025C14.3761 7.94686 14.6291 8.09213 14.7669 8.32839C14.9048 8.56465 14.9068 8.85635 14.7723 9.09451L14.2676 9.98769C12.3536 13.375 9.9127 16.4361 7.03648 19.0562L6.22057 19.7994C5.99538 20.0046 5.67035 20.0575 5.39171 19.9344C5.11308 19.8113 4.93332 19.5354 4.93332 19.2308V12.114H0.769229C0.344396 12.114 0 11.7696 0 11.3448C0 11.2072 0.0361285 11.078 0.0994171 10.9662C1.9033 7.63143 4.21282 4.59608 6.94585 1.96817L8.76939 0.214763C8.99168 0.0010207 9.32014 -0.0593066 9.60387 0.0614931ZM2.08674 10.5755H5.70255C6.12739 10.5755 6.47178 10.9199 6.47178 11.3448V17.4815C8.9524 15.1374 11.0786 12.4438 12.783 9.48532H9.30255C8.87772 9.48532 8.53332 9.14093 8.53332 8.71609V2.57603L8.01217 3.07714C5.70368 5.29683 3.71057 7.81992 2.08674 10.5755Z" fill="black"/>
</svg>
