<svg width="26" height="32" viewBox="0 0 26 32" fill="none" xmlns="http://www.w3.org/2000/svg">
<path d="M15.8346 1.83398H4.5013C3.74986 1.83398 3.02919 2.1325 2.49783 2.66385C1.96648 3.1952 1.66797 3.91587 1.66797 4.66732V27.334C1.66797 28.0854 1.96648 28.8061 2.49783 29.3375C3.02919 29.8688 3.74986 30.1673 4.5013 30.1673H21.5013C22.2527 30.1673 22.9734 29.8688 23.5048 29.3375C24.0361 28.8061 24.3346 28.0854 24.3346 27.334V10.334M15.8346 1.83398L24.3346 10.334M15.8346 1.83398V10.334H24.3346M18.668 17.4173H7.33464M18.668 23.084H7.33464M10.168 11.7507H7.33464" stroke="black" stroke-width="3" stroke-linecap="round" stroke-linejoin="round"/>
</svg>
