<?xml version="1.0" encoding="iso-8859-1"?>
<!-- Uploaded to: SVG Repo, www.svgrepo.com, Generator: SVG Repo Mixer Tools -->
<svg height="800px" width="800px" version="1.1" id="Layer_1" xmlns="http://www.w3.org/2000/svg" xmlns:xlink="http://www.w3.org/1999/xlink" 
	 viewBox="0 0 511.997 511.997" xml:space="preserve">
<path style="fill:#FFDAAA;" d="M255.997,89.103c-60.843,0-88.722,159.821-90.076,213.942h180.158
	C344.864,248.924,319.738,89.103,255.997,89.103z"/>
<path style="fill:#5EAC24;" d="M165.92,303.046h180.158c-0.394-17.571-3.31-46.284-9.248-77.051H175.849
	C169.597,256.762,166.36,285.475,165.92,303.046z"/>
<path style="fill:#FF3F62;" d="M255.997,89.103c-28.054,0-49.096,33.986-63.764,75.916h128.742
	C306.563,123.091,285.388,89.103,255.997,89.103z"/>
<path style="fill:#FF0C38;" d="M255.997,89.103c-28.054,0-49.096,33.986-63.764,75.916h44.701
	c10.564-30.186,24.429-56.255,41.84-68.483C271.802,91.783,264.223,89.103,255.997,89.103z"/>
<path style="fill:#47821C;" d="M220.548,225.994h-44.699c-6.252,30.767-9.489,59.481-9.928,77.051h44.696
	C211.056,285.474,214.294,256.76,220.548,225.994z"/>
<g>
	<path style="fill:#FFC477;" d="M236.934,165.019h-44.703c-6.816,19.482-12.257,40.672-16.382,60.975h44.699
		C224.674,205.692,230.117,184.5,236.934,165.019z"/>
	<path style="fill:#FFC477;" d="M474.489,280.265H37.511c-19.809,0-18.622,20.401-18.622,20.401s-0.017,75.666,73.858,115.377
		c0,0,11.456,6.851,35.888,6.851h254.733c24.432,0,35.888-6.851,35.888-6.851c73.874-39.711,73.858-115.377,73.858-115.377
		S494.299,280.265,474.489,280.265z"/>
</g>
<g>
	<path style="fill:#FFB655;" d="M131.738,300.666c0,0-1.188-20.401,18.622-20.401H37.511c-19.809,0-18.622,20.401-18.622,20.401
		s-0.017,75.666,73.858,115.377c0,0,11.456,6.851,35.888,6.851h112.849c-24.432,0-35.888-6.851-35.888-6.851
		C131.721,376.331,131.738,300.666,131.738,300.666z"/>
	<path style="fill:#FFB655;" d="M354.481,399.383h-16.456c-4.328,0-7.837-3.509-7.837-7.837c0-4.328,3.509-7.837,7.837-7.837h16.456
		c4.328,0,7.837,3.509,7.837,7.837C362.317,395.875,358.809,399.383,354.481,399.383z"/>
	<path style="fill:#FFB655;" d="M315.037,399.383h-53.812c-4.328,0-7.837-3.509-7.837-7.837c0-4.328,3.509-7.837,7.837-7.837h53.812
		c4.328,0,7.837,3.509,7.837,7.837C322.873,395.875,319.365,399.383,315.037,399.383z"/>
</g>
<path style="fill:#FF3F62;" d="M474.489,280.265H37.511c-19.809,0-18.622,20.401-18.622,20.401s0,6.752,1.965,17.276h470.291
	c1.965-10.524,1.965-17.276,1.965-17.276S494.299,280.265,474.489,280.265z"/>
<path style="fill:#FF0C38;" d="M150.36,280.265H37.511c-19.809,0-18.622,20.401-18.622,20.401s0,6.752,1.965,17.276h112.849
	c-1.965-10.524-1.965-17.276-1.965-17.276S130.55,280.265,150.36,280.265z"/>
<g>
	<circle style="fill:#6DC82A;" cx="180.266" cy="340.687" r="22.744"/>
	<circle style="fill:#6DC82A;" cx="98.482" cy="340.687" r="22.744"/>
	<circle style="fill:#6DC82A;" cx="256" cy="340.687" r="22.744"/>
	<circle style="fill:#6DC82A;" cx="22.744" cy="340.687" r="22.744"/>
</g>
<g>
	<path style="fill:#5EAC24;" d="M21.7,340.686c0-8.633,4.81-16.142,11.895-19.994c-3.225-1.753-6.921-2.75-10.85-2.75
		C10.184,317.942,0,328.125,0,340.686s10.184,22.745,22.745,22.745c3.929,0,7.625-0.997,10.85-2.75
		C26.509,356.828,21.7,349.319,21.7,340.686z"/>
	<path style="fill:#5EAC24;" d="M97.436,340.686c0-8.633,4.81-16.142,11.895-19.994c-3.225-1.753-6.921-2.75-10.85-2.75
		c-12.562,0-22.745,10.184-22.745,22.744c0,12.562,10.184,22.745,22.745,22.745c3.929,0,7.625-0.997,10.85-2.75
		C102.244,356.828,97.436,349.319,97.436,340.686z"/>
	<path style="fill:#5EAC24;" d="M179.22,340.686c0-8.633,4.81-16.142,11.895-19.994c-3.225-1.753-6.921-2.75-10.85-2.75
		c-12.562,0-22.745,10.184-22.745,22.744c0,12.562,10.184,22.745,22.745,22.745c3.929,0,7.625-0.997,10.85-2.75
		C184.03,356.828,179.22,349.319,179.22,340.686z"/>
	<path style="fill:#5EAC24;" d="M254.955,340.686c0-8.633,4.81-16.142,11.895-19.994c-3.225-1.753-6.921-2.75-10.85-2.75
		c-12.562,0-22.745,10.184-22.745,22.744c0,12.562,10.184,22.745,22.745,22.745c3.929,0,7.625-0.997,10.85-2.75
		C259.765,356.828,254.955,349.319,254.955,340.686z"/>
</g>
<g>
	<circle style="fill:#6DC82A;" cx="413.518" cy="340.687" r="22.744"/>
	<circle style="fill:#6DC82A;" cx="331.734" cy="340.687" r="22.744"/>
	<circle style="fill:#6DC82A;" cx="489.253" cy="340.687" r="22.744"/>
</g>
<g>
	<path style="fill:#5EAC24;" d="M330.69,340.686c0-8.633,4.81-16.142,11.895-19.994c-3.225-1.753-6.921-2.75-10.85-2.75
		c-12.562,0-22.745,10.184-22.745,22.744c0,12.562,10.184,22.745,22.745,22.745c3.929,0,7.625-0.997,10.85-2.75
		C335.5,356.828,330.69,349.319,330.69,340.686z"/>
	<path style="fill:#5EAC24;" d="M412.475,340.686c0-8.633,4.81-16.142,11.895-19.994c-3.225-1.753-6.921-2.75-10.85-2.75
		c-12.562,0-22.745,10.184-22.745,22.744c0,12.562,10.184,22.745,22.745,22.745c3.929,0,7.625-0.997,10.85-2.75
		C417.284,356.828,412.475,349.319,412.475,340.686z"/>
	<path style="fill:#5EAC24;" d="M488.211,340.686c0-8.633,4.81-16.142,11.895-19.994c-3.225-1.753-6.921-2.75-10.85-2.75
		c-12.562,0-22.745,10.184-22.745,22.744c0,12.562,10.184,22.745,22.745,22.745c3.929,0,7.625-0.997,10.85-2.75
		C493.019,356.828,488.211,349.319,488.211,340.686z"/>
</g>
</svg>