<?xml version="1.0" encoding="iso-8859-1"?>
<!-- Uploaded to: SVG Repo, www.svgrepo.com, Generator: SVG Repo Mixer Tools -->
<svg height="800px" width="800px" version="1.1" id="Layer_1" xmlns="http://www.w3.org/2000/svg" xmlns:xlink="http://www.w3.org/1999/xlink" 
	 viewBox="0 0 512 512" xml:space="preserve">
<circle style="fill:#E44C47;" cx="256" cy="256" r="256"/>
<path style="fill:#D62D2A;" d="M501.446,328.918l-47.332-47.332l-6.341,4.067L278.142,116.022l-48,135.956
	c0,0-143.139,93.665-140.974,93.665l166.35,166.352c0.16,0,0.321,0.005,0.481,0.005C372.048,512,470.044,434.776,501.446,328.918z"
	/>
<path style="fill:#EEBB46;" d="M426.667,341.333c-14.365,16.951-60.7,28.444-170.667,28.444s-156.875-9.194-170.667-28.444
	l-28.444-56.889h398.222L426.667,341.333z"/>
<path style="fill:#E2982B;" d="M255.426,284.444v85.332c0.195,0,0.379,0.002,0.574,0.002c109.966,0,156.301-11.493,170.667-28.444
	l28.444-56.889H255.426z"/>
<ellipse style="fill:#F3D64E;" cx="256" cy="284.444" rx="199.111" ry="28.444"/>
<g>
	<path style="fill:#EEBB46;" d="M256,256c-0.191,0-0.383,0-0.574,0v56.889c0.191,0,0.383,0,0.574,0
		c109.966,0,199.111-12.734,199.111-28.444S365.966,256,256,256z"/>
	<path style="fill:#EEBB46;" d="M195.663,284.565c12.483,8.189,34.606,13.671,60.337,13.671c25.965,0,47.926-5.479,60.337-13.791
		c0-10.3-0.291-20.397-0.843-30.227c-4.796-85.578-29.605-150.783-59.494-150.783s-54.698,65.205-59.494,150.783
		C195.955,264.047,195.663,274.265,195.663,284.565z"/>
</g>
<path style="fill:#E2982B;" d="M316.337,284.444c0-10.3-0.291-20.397-0.843-30.227c-4.796-85.578-29.605-150.783-59.494-150.783
	c-0.193,0-0.383,0.034-0.574,0.038v194.755c0.193,0,0.381,0.007,0.574,0.007C281.965,298.236,303.926,292.757,316.337,284.444z"/>
<g>
	<polygon style="fill:#9A421C;" points="101.326,341.295 120.268,319.995 128.908,347.157 	"/>
	<polygon style="fill:#9A421C;" points="142.155,350.668 161.018,325.311 173.185,354.476 	"/>
	<polygon style="fill:#9A421C;" points="189.63,356.159 208.524,328.816 222.384,359.022 	"/>
</g>
<g>
	<polygon style="fill:#804000;" points="410.674,341.295 391.732,319.995 383.091,347.157 	"/>
	<polygon style="fill:#804000;" points="369.845,350.668 350.984,325.311 338.815,354.476 	"/>
	<polygon style="fill:#804000;" points="322.37,356.159 303.476,328.816 289.616,359.022 	"/>
</g>
<polygon style="fill:#9A421C;" points="238.761,360.788 256,330.499 273.239,360.788 "/>
<polygon style="fill:#804000;" points="256,330.499 255.426,331.507 255.426,360.788 273.239,360.788 "/>
</svg>