<svg width="50" height="51" viewBox="0 0 50 51" fill="none" xmlns="http://www.w3.org/2000/svg">
<path d="M10.0769 15.5318C12.2742 15.5318 14.4674 15.5276 16.6648 15.5318C17.5412 15.5318 18.3044 16.0937 18.5434 16.8653C18.8034 17.6956 18.5518 18.6056 17.8264 19.0417C17.4322 19.2807 16.9206 19.4401 16.4635 19.4443C12.2072 19.4736 7.94661 19.4736 3.69026 19.4569C2.05482 19.4527 1.06936 17.985 1.7487 16.6179C2.12192 15.8673 2.76771 15.5318 3.58962 15.5318C5.75344 15.5234 7.91306 15.5318 10.0769 15.5318V15.5318Z" fill="#AAAAAA"/>
<path d="M39.2972 31.5977C41.4945 31.5977 43.6877 31.5977 45.8851 31.5977C47.0005 31.5977 47.8476 32.4238 47.856 33.5015C47.8644 34.5792 47.0215 35.443 45.9144 35.443C41.5071 35.4472 37.0956 35.4472 32.6883 35.443C31.5938 35.443 30.73 34.5708 30.7383 33.5057C30.7425 32.428 31.598 31.5977 32.7093 31.5977C34.9066 31.5977 37.0998 31.5977 39.2972 31.5977V31.5977Z" fill="#AAAAAA"/>
<path d="M34.6053 10.9696C34.6053 13.1292 34.6053 15.2889 34.6053 17.4485C34.6053 18.6814 33.8379 19.4781 32.6805 19.4739C31.5609 19.4739 30.7432 18.6143 30.7432 17.4191C30.7432 13.0999 30.7432 8.78064 30.7432 4.46139C30.7432 3.53464 31.2548 2.78401 32.0473 2.51144C32.8441 2.23887 33.7163 2.44434 34.1944 3.14465C34.4334 3.49271 34.5844 3.97076 34.5886 4.3901C34.6263 6.58327 34.6053 8.77645 34.6053 10.9696V10.9696Z" fill="#AAAAAA"/>
<path d="M14.7244 40.1221C14.7244 37.9122 14.716 35.7022 14.7286 33.4965C14.737 32.4942 15.4331 31.6975 16.3263 31.6052C17.425 31.492 18.2637 32.0413 18.5363 33.0603C18.574 33.2029 18.5866 33.3581 18.5866 33.5048C18.5866 37.908 18.5866 42.3069 18.5866 46.71C18.5866 47.6409 17.9366 48.4545 17.0979 48.6012C16.0537 48.7858 15.1731 48.3329 14.8376 47.3851C14.7412 47.1126 14.7286 46.7939 14.7286 46.5003C14.7202 44.3742 14.7244 42.2482 14.7244 40.1263V40.1221Z" fill="#AAAAAA"/>
<path d="M34.6835 23.5704C36.6628 23.5704 38.6379 23.562 40.6173 23.5746C41.4308 23.5788 42.0808 23.931 42.4414 24.6858C42.7727 25.3777 42.7014 26.0529 42.2611 26.6777C41.8501 27.2564 41.2421 27.4954 40.5627 27.4954C36.6419 27.508 32.721 27.5122 28.8001 27.4954C27.6302 27.4912 26.7244 26.5855 26.7369 25.5287C26.7495 24.4132 27.6511 23.5746 28.8546 23.5746C30.8004 23.5746 32.742 23.5746 34.6877 23.5746L34.6835 23.5704Z" fill="#AAAAAA"/>
<path d="M14.7143 23.5709C16.6894 23.5709 18.6688 23.5667 20.6439 23.5709C21.6126 23.5751 22.4512 24.2586 22.6022 25.1309C22.7658 26.1079 22.3045 26.9928 21.4113 27.3157C21.1051 27.4289 20.7613 27.4876 20.4342 27.4918C16.614 27.5044 12.7979 27.5002 8.9777 27.496C7.65677 27.496 6.78453 26.716 6.78034 25.5418C6.77195 24.4012 7.60225 23.5709 8.789 23.5667C10.7641 23.5583 12.7434 23.5667 14.7185 23.5667L14.7143 23.5709Z" fill="#AAAAAA"/>
<path d="M22.7661 13.5441C22.7661 12.2567 22.7997 10.9694 22.7577 9.68196C22.7158 8.45748 23.6425 7.63137 24.6741 7.60201C25.7938 7.57266 26.6325 8.47425 26.6325 9.68616C26.6325 12.2945 26.6325 14.9028 26.6325 17.5111C26.6325 18.4337 26.0873 19.1508 25.2109 19.4108C24.4183 19.6456 23.5 19.3311 23.0764 18.5888C22.8877 18.2576 22.7913 17.8382 22.7829 17.4524C22.7493 16.1483 22.7703 14.8441 22.7703 13.5399L22.7661 13.5441Z" fill="#AAAAAA"/>
<path d="M22.7706 37.5457C22.7706 36.1912 22.7581 34.8367 22.7748 33.4822C22.7874 32.5093 23.4626 31.721 24.3348 31.6077C25.3999 31.4694 26.2512 31.9893 26.5531 32.9748C26.5993 33.13 26.6328 33.3019 26.6328 33.4654C26.637 36.1576 26.6412 38.8498 26.6328 41.542C26.6328 42.5484 25.9409 43.2697 24.8548 43.4458C24.0664 43.5716 23.1481 42.9846 22.8755 42.1459C22.7958 41.8985 22.779 41.6217 22.7748 41.3575C22.7664 40.0869 22.7706 38.8163 22.7706 37.5457V37.5457Z" fill="#AAAAAA"/>
<path d="M43.285 19.4728C42.4128 19.4728 41.5406 19.4812 40.6725 19.4728C39.5613 19.4602 38.7561 18.6215 38.7687 17.5103C38.7813 16.4116 39.5697 15.6274 40.6809 15.6274C42.4422 15.6232 44.1992 15.6232 45.9605 15.6274C47.0214 15.6274 47.8601 16.4871 47.8601 17.548C47.8601 18.5838 47.034 19.4518 46.0024 19.4686C45.0966 19.4854 44.1908 19.4686 43.2892 19.4686L43.285 19.4728Z" fill="#AAAAAA"/>
<path d="M6.11591 31.5939C7.0217 31.5939 7.92748 31.5729 8.82907 31.5981C9.87324 31.6274 10.649 32.4913 10.6364 33.5522C10.6239 34.567 9.81034 35.4267 8.79972 35.4393C6.98815 35.456 5.18077 35.4602 3.3692 35.4393C2.34181 35.4267 1.56183 34.5838 1.55764 33.548C1.55344 32.4535 2.28729 31.6316 3.35243 31.6023C4.27499 31.5771 5.19335 31.5981 6.11591 31.5981V31.5939Z" fill="#AAAAAA"/>
<path d="M34.605 44.0716C34.605 44.9438 34.6134 45.8119 34.605 46.6841C34.5924 47.7702 33.8124 48.5795 32.7641 48.6047C31.6738 48.6298 30.768 47.8205 30.747 46.7302C30.7177 44.9564 30.7219 43.1826 30.747 41.4087C30.7596 40.3226 31.6989 39.4588 32.7976 39.5259C33.8502 39.593 34.5924 40.3394 34.605 41.4633C34.605 41.4968 34.605 41.5303 34.605 41.5639C34.605 42.4026 34.605 43.2371 34.605 44.0758V44.0716Z" fill="#AAAAAA"/>
<path d="M18.6066 6.9683C18.6066 7.84054 18.615 8.70858 18.6066 9.58082C18.5941 10.6585 17.7847 11.535 16.7154 11.5098C15.5999 11.4846 14.7864 10.7214 14.7571 9.61856C14.7109 7.84473 14.7235 6.07091 14.7529 4.29708C14.7696 3.24033 15.688 2.37229 16.7028 2.38068C17.7638 2.38906 18.5982 3.25291 18.6066 4.35998C18.615 5.23222 18.6066 6.10026 18.6066 6.9725V6.9683Z" fill="#AAAAAA"/>
<path d="M42.6315 9.52146C42.6608 10.5321 41.9437 11.4672 40.6815 11.5134C39.6332 11.5511 38.7819 10.6411 38.7735 9.58856C38.7651 8.49407 39.5954 7.61764 40.6647 7.59667C41.7299 7.5799 42.6273 8.45633 42.6357 9.52146H42.6315Z" fill="#AAAAAA"/>
<path d="M49.2703 25.5498C49.2661 26.6149 48.3519 27.5249 47.3162 27.4955C46.2384 27.4662 45.4123 26.6065 45.4165 25.5078C45.4165 24.4427 46.2552 23.583 47.3078 23.5704C48.3981 23.5579 49.2745 24.4427 49.2703 25.5498V25.5498Z" fill="#AAAAAA"/>
<path d="M0.13483 25.4994C0.143217 24.4426 0.990293 23.5788 2.03027 23.5704C3.11637 23.562 4.00538 24.4594 3.99699 25.5539C3.98861 26.6022 3.04508 27.529 2.02607 27.4912C0.939972 27.4535 0.126443 26.598 0.13483 25.4994Z" fill="#AAAAAA"/>
<path d="M22.771 48.0889C22.7668 46.9735 23.5678 46.1558 24.6832 46.1558C25.7861 46.1558 26.629 46.9819 26.6332 48.0638C26.6332 49.1457 25.7861 50.0053 24.7084 50.0095C23.6139 50.0095 22.7752 49.1834 22.771 48.0889Z" fill="#AAAAAA"/>
<path d="M8.73886 7.5821C9.82497 7.59048 10.6469 8.43756 10.6385 9.54044C10.6301 10.6098 9.76206 11.4485 8.66757 11.4359C7.58986 11.4233 6.76375 10.5678 6.78052 9.46496C6.7931 8.35789 7.61083 7.57371 8.74306 7.5821H8.73886Z" fill="#AAAAAA"/>
<path d="M8.71083 39.5342C9.80951 39.5342 10.6398 40.3645 10.6356 41.459C10.6356 42.5409 9.78015 43.3838 8.68986 43.3838C7.59956 43.3838 6.76926 42.5409 6.77345 41.4422C6.77345 40.3225 7.5786 39.5384 8.70663 39.5384L8.71083 39.5342Z" fill="#AAAAAA"/>
<path d="M40.7354 39.5342C41.8257 39.5384 42.6434 40.3854 42.6309 41.4925C42.6183 42.566 41.7502 43.3963 40.6516 43.3838C39.5696 43.3712 38.7561 42.5199 38.7687 41.4086C38.7813 40.2974 39.5864 39.53 40.7312 39.5384L40.7354 39.5342Z" fill="#AAAAAA"/>
<path d="M24.6874 4.82086C23.5594 4.82086 22.7668 4.0283 22.771 2.90026C22.771 1.81416 23.6181 0.962891 24.7 0.962891C25.7651 0.962891 26.629 1.83513 26.6332 2.91284C26.6332 3.99475 25.7945 4.82505 24.6874 4.82086Z" fill="#AAAAAA"/>
</svg>
