<svg width="37" height="45" viewBox="0 0 37 45" fill="none" xmlns="http://www.w3.org/2000/svg">
<path d="M37 22.5C34.9804 22.5806 29.1638 22.6613 27.7096 22.7419C20.6812 23.2258 19.2271 24.6774 18.7424 31.6935C18.6616 33.1452 18.5808 42.9839 18.5 45C18.4192 42.9839 18.3384 33.1452 18.2576 31.6935C17.7729 24.6774 16.3188 23.2258 9.29039 22.7419C7.83624 22.6613 2.01965 22.5806 0 22.5C2.01965 22.4194 7.83624 22.3387 9.29039 22.2581C16.3188 21.7742 17.7729 20.3226 18.2576 13.3065C18.3384 11.8548 18.4192 2.01613 18.5 0C18.5808 2.01613 18.6616 11.8548 18.7424 13.3065C19.2271 20.3226 20.6812 21.7742 27.7096 22.2581C29.1638 22.3387 34.8996 22.4194 37 22.5Z" fill="black"/>
</svg>
